<?xml version="1.0"?>
<svg xmlns="http://www.w3.org/2000/svg" height="512px" viewBox="0 0 496 496" width="512px" class=""><g><path d="m104 356.160156v-116.160156h73.761719c-1.761719 1.121094-3.601563 2.078125-5.441407 2.960938-13.839843 6.71875-23.359374 20.078124-26.398437 35.117187l-9.921875 49.921875.078125 1.441406c-14.078125 3.519532-25.917969 13.277344-32 26.71875zm0 0" fill="#f0bc5e" data-original="#F0BC5E" class="active-path" style="fill:#9ed362" data-old_color="#f0bc5e"/><path d="m307 122 21-98-112-24-28.535156 128.398438c7.167968 1.585937 12.535156 7.960937 12.535156 15.601562v16h-16v32l14.3125 7.152344c7.320312 3.664062 12.824219 9.902344 15.625 17.3125l-2.289062 2.902344c5.046874-2.023438 10.398437-3.367188 16.335937-3.367188 8.710937 0 14.894531 2.695312 20.023437 6.527344 0 0 11.296876-6.527344 20.007813-6.527344 6.585937 0 12.449219 1.640625 17.976563 4.046875l8.039062-37.511719c-3.710938-4.480468-6.03125-10.152344-6.03125-16.421875 0-4.015625.9375-7.984375 2.734375-11.578125zm0 0" fill="#f0bc5e" data-original="#F0BC5E" class="active-path" style="fill:#9ed362" data-old_color="#f0bc5e"/><path d="m376 160c0 4.417969-3.582031 8-8 8s-8-3.582031-8-8 3.582031-8 8-8 8 3.582031 8 8zm0 0" data-original="#000000" class="" style="fill:#757575" data-old_color="#000000"/><path d="m448 456c0-30.878906-25.121094-56-56-56h-.878906c-8.296875-8.113281-19.097656-13.632812-31.121094-15.359375v-25.695313l35.558594 23.710938 8.875-13.3125-44.433594-29.625v-20.765625l35.558594 23.710937 8.875-13.3125-44.433594-29.632812v-20.765625l35.558594 23.710937 8.875-13.3125-44.433594-29.632812v-20.765625l35.558594 23.710937 8.875-13.3125-44.433594-29.632812v-19.71875h30.113281c18.6875 0 33.886719-15.199219 33.886719-33.886719 0-5.234375-1.238281-10.472656-3.574219-15.160156l-38.113281-76.226563c-5.777344-11.550781-17.390625-18.726562-30.3125-18.726562s-24.535156 7.175781-30.3125 18.734375l-38.113281 76.226563c-2.335938 4.679687-3.574219 9.917968-3.574219 15.152343 0 18.6875 15.199219 33.886719 33.886719 33.886719h30.113281v19.71875l-20.742188 13.832031c-4.210937-2.398437-8.363281-5.117187-12.664062-8.109375-11.753906-8.175781-25.066406-17.441406-42.578125-17.441406-7.03125 0-14.75 3.03125-19.519531 5.28125-6.175782-3.546875-12.929688-5.28125-20.511719-5.28125-3.105469 0-6.03125.375-8.878906.894531-3.890625-7.230469-9.777344-13.183593-17.210938-16.894531l-9.894531-4.945312v-19.054688h16v-24c0-13.230469-10.769531-24-24-24h-48c-13.230469 0-24 10.769531-24 24v24h16v19.054688l-9.886719 4.945312c-13.640625 6.816406-22.113281 20.527344-22.113281 35.777344v127.183594c-.664062 1.640624-1.40625 3.222656-1.929688 4.941406l-13.605468 45.34375c-19.136719 8.921875-32.464844 28.289062-32.464844 50.753906v24h-16v16h432v-16h-16zm-152-289.886719c0-2.761719.65625-5.527343 1.886719-8l38.113281-76.226562c1.769531-3.535157 4.632812-6.160157 8-7.855469v29.96875h16v-29.96875c3.367188 1.695312 6.230469 4.320312 8 7.855469l38.113281 76.226562c1.238281 2.472657 1.886719 5.238281 1.886719 8 0 9.863281-8.023438 17.886719-17.886719 17.886719h-76.226562c-9.863281 0-17.886719-8.023438-17.886719-17.886719zm96 273.886719v7.191406c-18.230469-3.710937-32-19.878906-32-39.191406v-7.191406c18.230469 3.710937 32 19.871094 32 39.191406zm-48-32c0 19.320312-13.769531 35.480469-32 39.191406v-7.191406c0-19.320312 13.769531-35.480469 32-39.191406zm-216-264c0-4.40625 3.59375-8 8-8h48c4.40625 0 8 3.59375 8 8v8h-64zm-2.734375 62.3125 18.734375-9.367188v-28.945312h32v28.945312l18.734375 9.367188c3.632813 1.816406 6.625 4.542969 8.898437 7.808594-6.617187 3.269531-12.609374 7.40625-18.226562 11.3125-5.644531 3.925781-10.980469 7.636718-16.605469 10.367187-15.632812 7.574219-27.105469 22.808594-30.695312 40.734375l-9.363281 46.800782c-6.15625 2.199218-11.773438 5.488281-16.742188 9.617187v-105.175781c0-9.152344 5.078125-17.378906 13.265625-21.464844zm-61.265625 249.6875c0-22.054688 17.945312-40 40-40h80v-16h-80c-1.800781 0-3.566406.105469-5.328125.273438l10.726563-35.769532c5.113281-17.046875 20.511718-28.503906 38.3125-28.503906h84.289062v-16h-84.289062c-.6875 0-1.335938.136719-2.023438.160156l7.769531-38.855468c3.839844 1.207031 6.765625 3.128906 10.09375 5.34375 6.257813 4.175781 14.023438 9.351562 28.449219 9.351562v-16c-9.574219 0-13.984375-2.9375-19.558594-6.65625-3.648437-2.441406-7.875-5.191406-13.601562-7.085938 4.03125-6.992187 9.886718-12.648437 16.9375-16.066406 6.75-3.269531 12.863281-7.519531 18.765625-11.632812 10.769531-7.488282 20.945312-14.558594 33.441406-14.558594 5.96875 0 10.664063 1.519531 15.230469 4.9375l4.226562 3.140625 4.558594-2.621094c3.679688-2.105469 11.28125-5.457031 16.015625-5.457031 12.496094 0 22.671875 7.070312 33.441406 14.566406 2.304688 1.609375 4.6875 3.210938 7.085938 4.792969l-8.984375 5.984375 8.875 13.3125 35.566406-23.710938v20.765626l-44.441406 29.625 8.875 13.3125 35.566406-23.703126v20.765626l-44.441406 29.625 8.875 13.3125 35.566406-23.703126v20.765626l-44.441406 29.625 8.875 13.3125 35.566406-23.703126v25.695313c-27.097656 3.902344-48 27.207031-48 55.359375v24h8c20.382812 0 38.199219-10.984375 48-27.304688 9.800781 16.320313 27.617188 27.304688 48 27.304688h8v-24c0-7.863281-1.648438-15.34375-4.585938-22.136719 16.472657 4.953125 28.585938 20.074219 28.585938 38.136719v24h-368zm0 0" data-original="#000000" class="" style="fill:#757575" data-old_color="#000000"/><path d="m176 432v16c9.574219 0 13.984375 2.9375 19.558594 6.65625 6.25 4.167969 14.015625 9.34375 28.441406 9.34375v-16c-9.574219 0-13.984375-2.9375-19.558594-6.65625-6.25-4.167969-14.015625-9.34375-28.441406-9.34375zm0 0" data-original="#000000" class="" style="fill:#757575" data-old_color="#000000"/><path d="m216 392v-16c-9.574219 0-13.984375-2.9375-19.558594-6.65625-6.25-4.167969-14.015625-9.34375-28.441406-9.34375v16c9.574219 0 13.984375 2.9375 19.558594 6.65625 6.25 4.167969 14.015625 9.34375 28.441406 9.34375zm0 0" data-original="#000000" class="" style="fill:#757575" data-old_color="#000000"/><path d="m224 408v16c9.574219 0 13.984375 2.9375 19.558594 6.65625 6.25 4.167969 14.015625 9.34375 28.441406 9.34375v-16c-9.574219 0-13.984375-2.9375-19.558594-6.65625-6.25-4.167969-14.015625-9.34375-28.441406-9.34375zm0 0" data-original="#000000" class="" style="fill:#757575" data-old_color="#000000"/><path d="m232 352v16c14.425781 0 22.191406-5.175781 28.441406-9.34375 5.574219-3.71875 9.984375-6.65625 19.558594-6.65625v-16c-14.425781 0-22.191406 5.175781-28.441406 9.34375-5.574219 3.71875-9.984375 6.65625-19.558594 6.65625zm0 0" data-original="#000000" class="" style="fill:#757575" data-old_color="#000000"/><path d="m272 264v-16c-14.425781 0-22.191406 5.175781-28.441406 9.34375-5.574219 3.71875-9.984375 6.65625-19.558594 6.65625v16c14.425781 0 22.191406-5.175781 28.441406-9.34375 5.574219-3.71875 9.984375-6.65625 19.558594-6.65625zm0 0" data-original="#000000" class="" style="fill:#757575" data-old_color="#000000"/><path d="m232 48h16v16h-16zm0 0" data-original="#000000" class="" style="fill:#757575" data-old_color="#000000"/><path d="m248 96h16v16h-16zm0 0" data-original="#000000" class="" style="fill:#757575" data-old_color="#000000"/><path d="m256 152h16v16h-16zm0 0" data-original="#000000" class="" style="fill:#757575" data-old_color="#000000"/><path d="m224 128h16v16h-16zm0 0" data-original="#000000" class="" style="fill:#757575" data-old_color="#000000"/><path d="m280 40h16v16h-16zm0 0" data-original="#000000" class="" style="fill:#757575" data-old_color="#000000"/><path d="m224 176h16v16h-16zm0 0" data-original="#000000" class="" style="fill:#757575" data-old_color="#000000"/><path d="m0 480h16v16h-16zm0 0" data-original="#000000" class="" style="fill:#757575" data-old_color="#000000"/><path d="m480 480h16v16h-16zm0 0" data-original="#000000" class="" style="fill:#757575" data-old_color="#000000"/></g> </svg>
