<?xml version="1.0" encoding="iso-8859-1"?>
<!-- Generator: Adobe Illustrator 21.0.0, SVG Export Plug-In . SVG Version: 6.00 Build 0)  -->
<svg xmlns="http://www.w3.org/2000/svg" xmlns:xlink="http://www.w3.org/1999/xlink" version="1.1" id="Capa_1" x="0px" y="0px" viewBox="0 0 512 512" style="enable-background:new 0 0 512 512;" xml:space="preserve" width="512" height="512">
<g>
	<path d="M256,0C190.209,0,127.646,25.006,79.835,70.412c-7.014,6.661,3.316,17.538,10.329,10.877C135.176,38.542,194.071,15,256,15   c132.888,0,241,108.112,241,241S388.888,497,256,497S15,388.888,15,256c0-52.978,16.934-103.278,48.97-145.464   c5.85-7.703-6.094-16.774-11.945-9.072C17.99,146.281,0,199.719,0,256c0,141.159,114.841,256,256,256   c141.159,0,256-114.841,256-256S397.159,0,256,0z"/>
	<path d="M274.308,451.938c-9.631,0.892-8.248,15.855,1.385,14.936c52.261-4.842,100.698-28.944,136.389-67.868   c35.549-38.767,55.701-90.402,55.701-143.005c0-116.776-95.005-211.781-211.782-211.781S44.218,139.224,44.218,256   c0,53.228,19.899,104.143,56.033,143.367c35.917,38.988,84.604,62.996,137.094,67.6c9.638,0.845,10.944-14.098,1.311-14.943   c-47.6-4.174-91.836-25.544-124.967-60.268l70.273-69.399l41.764,40.067c2.906,2.788,7.645,2.741,10.496-0.108l31.526-31.527   l19.875,20.44c2.884,2.967,7.629,3.036,10.601,0.153l28.645-27.802l69.409,70.271C363.623,427.091,320.579,447.65,274.308,451.938z    M406.396,382.75l-68.841-69.697l34.443-34.443l61.736,61.79C426.535,355.512,417.375,369.747,406.396,382.75z M256,59.219   c108.506,0,196.782,88.275,196.782,196.781c0,24.008-4.374,47.515-12.707,69.523l-62.77-62.824   c-2.896-2.9-7.712-2.899-10.609-0.003l-39.683,39.683l-63.755-64.548v-26.777h62.579c5.667,0,9.342-6.369,6.479-11.279   l-12.884-22.084l12.884-22.089c2.863-4.909-0.811-11.278-6.479-11.278h-62.579V137c0-9.673-15-9.673-15,0v100.778l-84.802,83.747   l-37.949-37.95c-2.928-2.928-7.677-2.928-10.606,0l-42.697,42.696C63.688,304.052,59.218,280.286,59.218,256   C59.218,147.494,147.494,59.219,256,59.219z M304.271,181.471l8.508,14.584h-49.521v-36.73h49.521l-8.509,14.589   C302.908,176.248,302.908,179.136,304.271,181.471z M78.597,341.092l41.607-41.606l32.579,32.58l-49.046,48.436   C93.748,368.312,85.33,355.082,78.597,341.092z M293.153,335.399L273.2,314.878c-1.399-1.439-3.317-2.257-5.324-2.271   c-0.018,0-0.035,0-0.053,0c-1.988,0-3.896,0.79-5.304,2.196l-31.71,31.711l-36.171-34.701l61.054-60.294l60.635,61.388   L293.153,335.399z"/>
	<path d="M93.128,242.949c3.978,0.488,7.869-2.542,8.359-6.529c3.776-30.709,16.749-59.221,37.516-82.454   c20.617-23.065,47.337-39.213,77.272-46.695c9.386-2.347,5.747-16.9-3.638-14.553c-32.861,8.215-62.19,25.938-84.818,51.252   c-22.815,25.524-37.069,56.86-41.22,90.62C86.094,238.701,89.017,242.443,93.128,242.949z"/>
</g>















</svg>
