<?xml version="1.0" encoding="iso-8859-1"?>
<!-- Generator: Adobe Illustrator 19.0.0, SVG Export Plug-In . SVG Version: 6.00 Build 0)  -->
<svg version="1.1" id="Capa_1" xmlns="http://www.w3.org/2000/svg" xmlns:xlink="http://www.w3.org/1999/xlink" x="0px" y="0px"
	 viewBox="0 0 512.001 512.001" style="enable-background:new 0 0 512.001 512.001;" xml:space="preserve">
<g>
	<g>
		<path d="M246.089,502.818c-6.021-26.22-28.81-44.53-55.421-44.53h-15.739v-91.63c0-4.144-3.36-7.503-7.503-7.503
			c-4.144,0-7.503,3.359-7.503,7.503v91.63h-20.846V151.095c0-4.144-3.359-7.503-7.503-7.503c-4.144,0-7.503,3.359-7.503,7.503
			v307.193h-15.738c-26.612,0-49.401,18.311-55.421,44.53c-0.511,2.227,0.02,4.566,1.444,6.354c1.424,1.788,3.585,2.829,5.87,2.829
			h178.552c2.285,0,4.446-1.041,5.87-2.829C246.069,507.384,246.6,505.045,246.089,502.818z M70.754,496.992
			c6.913-14.318,21.274-23.699,37.577-23.699h23.241h35.853h23.241c16.303,0,30.664,9.378,37.577,23.699H70.754z"/>
	</g>
</g>
<g>
	<g>
		<path d="M457.689,245.299l-25.237-32.286c-2.552-3.265-7.269-3.843-10.533-1.291c-3.264,2.552-3.843,7.268-1.291,10.533
			l15.76,20.162H175.261V61.484h261.128l-67.103,85.845c-2.122,2.715-2.122,6.527,0,9.242l32.434,41.492
			c2.554,3.265,7.269,3.843,10.533,1.291c3.266-2.552,3.843-7.268,1.291-10.533l-28.822-36.87l72.968-93.349
			c1.767-2.26,2.09-5.33,0.832-7.91s-3.875-4.215-6.744-4.215H174.929V25.43C174.929,11.408,163.521,0,149.5,0
			c-14.021,0-25.43,11.408-25.43,25.43v95.651c0,4.144,3.36,7.503,7.503,7.503c4.144,0,7.503-3.359,7.503-7.503V25.43
			c0-5.748,4.676-10.424,10.424-10.424c5.748,0,10.423,4.676,10.423,10.424v311.214c0,4.144,3.359,7.503,7.503,7.503
			c4.144,0,7.503-3.359,7.503-7.503v-79.221h276.849c2.869,0,5.486-1.636,6.744-4.215
			C459.779,250.629,459.456,247.56,457.689,245.299z"/>
	</g>
</g>
<g>
</g>
<g>
</g>
<g>
</g>
<g>
</g>
<g>
</g>
<g>
</g>
<g>
</g>
<g>
</g>
<g>
</g>
<g>
</g>
<g>
</g>
<g>
</g>
<g>
</g>
<g>
</g>
<g>
</g>
</svg>
