<?xml version="1.0" encoding="utf-8"?>
<!-- Generator: Adobe Illustrator 16.0.0, SVG Export Plug-In . SVG Version: 6.00 Build 0)  -->
<!DOCTYPE svg PUBLIC "-//W3C//DTD SVG 1.1//EN" "http://www.w3.org/Graphics/SVG/1.1/DTD/svg11.dtd">
<svg version="1.1" id="Layer_1" xmlns="http://www.w3.org/2000/svg" x="0px"
     y="0px"
     width="800px" height="182.489px" viewBox="0 0 800 182.489" enable-background="new 0 0 800 182.489"
     xml:space="preserve">
<polygon id="WAVE4" fill="#FFFFFF" points="1331.904,-19.583 1219.575,73.545 1138.188,47.277 1035.114,90.259 800,-0.48
	800,182.489 1600,182.489 1600,-8.511 1504.476,21.011 "/>
    <polygon id="WAVE3" fill="#FFFFFF" points="542.841,40.748 389.44,95.875 252.817,14.382 1,115.05 1,116.489 0,115.655 0,182.489
	800,182.489 800,0 681.86,91.083 "/>
    <polygon id="WAVE2" fill="#FFFFFF" points="-308.75,65.424 -473.776,10.378 -634.25,67.817 -800,-22.511 -800,116.489 -800,182.489
	0,182.489 0,115.655 -146.363,-6.375 "/>
</svg>
