<?xml version="1.0" encoding="UTF-8" standalone="no"?>
<!DOCTYPE svg PUBLIC "-//W3C//DTD SVG 1.1//EN" "http://www.w3.org/Graphics/SVG/1.1/DTD/svg11.dtd">
<svg version="1.1" xmlns="http://www.w3.org/2000/svg" xmlns:xlink="http://www.w3.org/1999/xlink"
     preserveAspectRatio="xMidYMid meet" viewBox="-1 -1 644 644" width="640" height="640">
    <defs>
        <path d="M346.26 1.06L359.18 2.37L371.94 4.18L384.53 6.5L396.95 9.29L409.17 12.57L421.2 16.3L433.02 20.49L444.62 25.13L455.99 30.2L467.12 35.69L478.01 41.6L488.63 47.91L498.98 54.62L509.05 61.71L518.83 69.17L528.31 76.99L537.48 85.16L546.33 93.68L554.85 102.53L563.02 111.7L570.84 121.18L578.3 130.96L585.39 141.03L592.09 151.38L598.4 162.01L604.31 172.89L609.8 184.02L614.87 195.39L619.51 206.99L623.7 218.81L627.44 230.84L630.71 243.06L633.5 255.47L635.82 268.06L637.63 280.82L638.94 293.74L639.73 306.8L640 320L639.73 333.2L638.94 346.26L637.63 359.18L635.82 371.94L633.5 384.53L630.71 396.95L627.43 409.17L623.7 421.2L619.51 433.02L614.87 444.62L609.8 455.99L604.31 467.12L598.4 478.01L592.09 488.63L585.38 498.98L578.29 509.05L570.83 518.83L563.01 528.31L554.84 537.48L546.32 546.33L537.47 554.85L528.3 563.02L518.82 570.84L509.04 578.3L498.97 585.39L488.62 592.09L477.99 598.4L467.11 604.31L455.98 609.8L444.61 614.87L433.01 619.51L421.19 623.7L409.16 627.44L396.94 630.71L384.53 633.5L371.94 635.82L359.18 637.63L346.26 638.94L333.2 639.73L320 640L306.8 639.73L293.74 638.94L280.82 637.63L268.06 635.82L255.47 633.5L243.05 630.71L230.83 627.43L218.8 623.7L206.98 619.51L195.38 614.87L184.01 609.8L172.88 604.31L161.99 598.4L151.37 592.09L141.02 585.38L130.95 578.29L121.17 570.83L111.69 563.01L102.52 554.84L93.67 546.32L85.15 537.47L76.98 528.3L69.16 518.82L61.7 509.04L54.61 498.97L47.91 488.62L41.6 477.99L35.69 467.11L30.2 455.98L25.13 444.61L20.49 433.01L16.3 421.19L12.56 409.16L9.29 396.94L6.5 384.53L4.18 371.94L2.37 359.18L1.06 346.26L0.27 333.2L0 320L0.02 318.97L0.08 317.95L0.19 316.94L0.33 315.94L0.51 314.96L0.73 313.99L0.98 313.04L1.27 312.1L1.6 311.17L1.96 310.27L2.36 309.38L2.79 308.51L3.25 307.66L3.75 306.83L4.27 306.02L4.82 305.24L5.41 304.47L6.02 303.73L6.66 303.01L7.32 302.32L8.01 301.66L8.73 301.02L9.47 300.41L10.24 299.82L11.02 299.27L11.83 298.75L12.66 298.25L13.51 297.79L14.38 297.36L15.27 296.96L16.17 296.6L17.1 296.27L18.04 295.98L18.99 295.73L19.96 295.51L20.94 295.33L21.94 295.19L22.95 295.08L23.97 295.02L25 295L26.03 295.02L27.05 295.08L28.06 295.19L29.06 295.33L30.04 295.51L31.01 295.73L31.96 295.98L32.9 296.27L33.83 296.6L34.73 296.96L35.62 297.36L36.49 297.79L37.34 298.25L38.17 298.75L38.98 299.27L39.76 299.82L40.53 300.41L41.27 301.02L41.99 301.66L42.68 302.32L43.34 303.01L43.98 303.73L44.59 304.47L45.18 305.24L45.73 306.02L46.25 306.83L46.75 307.66L47.21 308.51L47.64 309.38L48.04 310.27L48.4 311.17L48.73 312.1L49.02 313.04L49.27 313.99L49.49 314.96L49.67 315.94L49.81 316.94L49.92 317.95L49.98 318.97L50 320L50.23 331.14L50.89 342.16L52 353.06L53.53 363.83L55.48 374.45L57.84 384.92L60.6 395.24L63.75 405.39L67.29 415.36L71.2 425.15L75.48 434.74L80.12 444.13L85.1 453.32L90.43 462.28L96.08 471.01L102.06 479.51L108.36 487.76L114.96 495.76L121.86 503.5L129.04 510.97L136.51 518.15L144.24 525.05L152.24 531.65L160.5 537.94L168.99 543.92L177.73 549.58L186.69 554.9L195.87 559.89L205.27 564.52L214.86 568.8L224.65 572.71L234.62 576.25L244.77 579.4L255.08 582.16L265.56 584.52L276.18 586.47L286.94 588L297.84 589.11L308.86 589.78L320 590L331.14 589.77L342.16 589.11L353.06 588L363.83 586.47L374.45 584.52L384.92 582.16L395.24 579.4L405.39 576.25L415.36 572.71L425.15 568.8L434.74 564.52L444.13 559.88L453.32 554.9L462.28 549.57L471.01 543.92L479.51 537.94L487.76 531.64L495.76 525.04L503.5 518.14L510.97 510.96L518.15 503.49L525.05 495.76L531.65 487.76L537.94 479.5L543.92 471.01L549.58 462.27L554.9 453.31L559.89 444.13L564.52 434.73L568.8 425.14L572.71 415.35L576.25 405.38L579.4 395.23L582.16 384.92L584.52 374.44L586.47 363.82L588 353.06L589.11 342.16L589.78 331.14L590 320L589.77 308.86L589.11 297.84L588 286.94L586.47 276.17L584.52 265.55L582.16 255.08L579.4 244.76L576.25 234.61L572.71 224.64L568.8 214.85L564.52 205.26L559.88 195.87L554.9 186.68L549.57 177.72L543.92 168.99L537.94 160.49L531.64 152.24L525.04 144.24L518.14 136.5L510.96 129.04L503.49 121.85L495.76 114.95L487.76 108.35L479.5 102.06L471.01 96.08L462.27 90.42L453.31 85.1L444.13 80.11L434.73 75.48L425.14 71.2L415.35 67.29L405.38 63.75L395.23 60.6L384.92 57.84L374.44 55.48L363.82 53.53L353.06 52L342.16 50.89L331.14 50.22L320 50L318.97 49.98L317.95 49.92L316.94 49.81L315.94 49.67L314.96 49.49L313.99 49.27L313.04 49.02L312.1 48.73L311.17 48.4L310.27 48.04L309.38 47.64L308.51 47.21L307.66 46.75L306.83 46.25L306.02 45.73L305.24 45.18L304.47 44.59L303.73 43.98L303.01 43.34L302.32 42.68L301.66 41.99L301.02 41.27L300.41 40.53L299.82 39.76L299.27 38.98L298.75 38.17L298.25 37.34L297.79 36.49L297.36 35.62L296.96 34.73L296.6 33.83L296.27 32.9L295.98 31.96L295.73 31.01L295.51 30.04L295.33 29.06L295.19 28.06L295.08 27.05L295.02 26.03L295 25L295.02 23.97L295.08 22.95L295.19 21.94L295.33 20.94L295.51 19.96L295.73 18.99L295.98 18.04L296.27 17.1L296.6 16.17L296.96 15.27L297.36 14.38L297.79 13.51L298.25 12.66L298.75 11.83L299.27 11.02L299.82 10.24L300.41 9.47L301.02 8.73L301.66 8.01L302.32 7.32L303.01 6.66L303.73 6.02L304.47 5.41L305.24 4.82L306.02 4.27L306.83 3.75L307.66 3.25L308.51 2.79L309.38 2.36L310.27 1.96L311.17 1.6L312.1 1.27L313.04 0.98L313.99 0.73L314.96 0.51L315.94 0.33L316.94 0.19L317.95 0.08L318.97 0.02L320 0L333.2 0.27L346.26 1.06ZM322.05 195.08L323.06 195.19L324.06 195.33L325.04 195.51L326.01 195.73L326.96 195.98L327.9 196.27L328.83 196.6L329.73 196.96L330.62 197.36L331.49 197.79L332.34 198.25L333.17 198.75L333.98 199.27L334.76 199.82L335.53 200.41L336.27 201.02L336.99 201.66L337.68 202.32L338.34 203.01L338.98 203.73L339.59 204.47L340.18 205.24L340.73 206.02L341.25 206.83L341.75 207.66L342.21 208.51L342.64 209.38L343.04 210.27L343.4 211.17L343.73 212.1L344.02 213.04L344.27 213.99L344.49 214.96L344.67 215.94L344.81 216.94L344.92 217.95L344.98 218.97L345 220L345 295L420 295L421.03 295.02L422.05 295.08L423.06 295.19L424.06 295.33L425.04 295.51L426.01 295.73L426.96 295.98L427.9 296.27L428.83 296.6L429.73 296.96L430.62 297.36L431.49 297.79L432.34 298.25L433.17 298.75L433.98 299.27L434.76 299.82L435.53 300.41L436.27 301.02L436.99 301.66L437.68 302.32L438.34 303.01L438.98 303.73L439.59 304.47L440.18 305.24L440.73 306.02L441.25 306.83L441.75 307.66L442.21 308.51L442.64 309.38L443.04 310.27L443.4 311.17L443.73 312.1L444.02 313.04L444.27 313.99L444.49 314.96L444.67 315.94L444.81 316.94L444.92 317.95L444.98 318.97L445 320L444.98 321.03L444.92 322.05L444.81 323.06L444.67 324.06L444.49 325.04L444.27 326.01L444.02 326.96L443.73 327.9L443.4 328.83L443.04 329.73L442.64 330.62L442.21 331.49L441.75 332.34L441.25 333.17L440.73 333.98L440.18 334.76L439.59 335.53L438.98 336.27L438.34 336.99L437.68 337.68L436.99 338.34L436.27 338.98L435.53 339.59L434.76 340.18L433.98 340.73L433.17 341.25L432.34 341.75L431.49 342.21L430.62 342.64L429.73 343.04L428.83 343.4L427.9 343.73L426.96 344.02L426.01 344.27L425.04 344.49L424.06 344.67L423.06 344.81L422.05 344.92L421.03 344.98L420 345L345 345L345 420L344.98 421.03L344.92 422.05L344.81 423.06L344.67 424.06L344.49 425.04L344.27 426.01L344.02 426.96L343.73 427.9L343.4 428.83L343.04 429.73L342.64 430.62L342.21 431.49L341.75 432.34L341.25 433.17L340.73 433.98L340.18 434.76L339.59 435.53L338.98 436.27L338.34 436.99L337.68 437.68L336.99 438.34L336.27 438.98L335.53 439.59L334.76 440.18L333.98 440.73L333.17 441.25L332.34 441.75L331.49 442.21L330.62 442.64L329.73 443.04L328.83 443.4L327.9 443.73L326.96 444.02L326.01 444.27L325.04 444.49L324.06 444.67L323.06 444.81L322.05 444.92L321.03 444.98L320 445L318.97 444.98L317.95 444.92L316.94 444.81L315.94 444.67L314.96 444.49L313.99 444.27L313.04 444.02L312.1 443.73L311.17 443.4L310.27 443.04L309.38 442.64L308.51 442.21L307.66 441.75L306.83 441.25L306.02 440.73L305.24 440.18L304.47 439.59L303.73 438.98L303.01 438.34L302.32 437.68L301.66 436.99L301.02 436.27L300.41 435.53L299.82 434.76L299.27 433.98L298.75 433.17L298.25 432.34L297.79 431.49L297.36 430.62L296.96 429.73L296.6 428.83L296.27 427.9L295.98 426.96L295.73 426.01L295.51 425.04L295.33 424.06L295.19 423.06L295.08 422.05L295.02 421.03L295 420L295 345L220 345L218.97 344.98L217.95 344.92L216.94 344.81L215.94 344.67L214.96 344.49L213.99 344.27L213.04 344.02L212.1 343.73L211.17 343.4L210.27 343.04L209.38 342.64L208.51 342.21L207.66 341.75L206.83 341.25L206.02 340.73L205.24 340.18L204.47 339.59L203.73 338.98L203.01 338.34L202.32 337.68L201.66 336.99L201.02 336.27L200.41 335.53L199.82 334.76L199.27 333.98L198.75 333.17L198.25 332.34L197.79 331.49L197.36 330.62L196.96 329.73L196.6 328.83L196.27 327.9L195.98 326.96L195.73 326.01L195.51 325.04L195.33 324.06L195.19 323.06L195.08 322.05L195.02 321.03L195 320L195.02 318.97L195.08 317.95L195.19 316.94L195.33 315.94L195.51 314.96L195.73 313.99L195.98 313.04L196.27 312.1L196.6 311.17L196.96 310.27L197.36 309.38L197.79 308.51L198.25 307.66L198.75 306.83L199.27 306.02L199.82 305.24L200.41 304.47L201.02 303.73L201.66 303.01L202.32 302.32L203.01 301.66L203.73 301.02L204.47 300.41L205.24 299.82L206.02 299.27L206.83 298.75L207.66 298.25L208.51 297.79L209.38 297.36L210.27 296.96L211.17 296.6L212.1 296.27L213.04 295.98L213.99 295.73L214.96 295.51L215.94 295.33L216.94 295.19L217.95 295.08L218.97 295.02L220 295L295 295L295 220L295.02 218.97L295.08 217.95L295.19 216.94L295.33 215.94L295.51 214.96L295.73 213.99L295.98 213.04L296.27 212.1L296.6 211.17L296.96 210.27L297.36 209.38L297.79 208.51L298.25 207.66L298.75 206.83L299.27 206.02L299.82 205.24L300.41 204.47L301.02 203.73L301.66 203.01L302.32 202.32L303.01 201.66L303.73 201.02L304.47 200.41L305.24 199.82L306.02 199.27L306.83 198.75L307.66 198.25L308.51 197.79L309.38 197.36L310.27 196.96L311.17 196.6L312.1 196.27L313.04 195.98L313.99 195.73L314.96 195.51L315.94 195.33L316.94 195.19L317.95 195.08L318.97 195.02L320 195L321.03 195.02L322.05 195.08ZM55.93 166L56.91 166.09L57.89 166.21L58.87 166.38L59.85 166.59L60.82 166.84L61.79 167.13L62.76 167.47L63.72 167.84L64.67 168.26L65.58 168.7L66.48 169.18L67.34 169.7L68.18 170.24L68.99 170.81L69.78 171.42L70.53 172.04L71.26 172.7L71.96 173.38L72.63 174.09L73.27 174.82L73.88 175.57L74.45 176.34L75 177.14L75.52 177.95L76 178.78L76.45 179.63L76.87 180.49L77.25 181.37L77.6 182.27L77.92 183.17L78.2 184.09L78.44 185.02L78.66 185.96L78.83 186.91L78.97 187.86L79.07 188.83L79.13 189.79L79.16 190.77L79.15 191.74L79.1 192.72L79.01 193.7L78.88 194.68L78.71 195.66L78.5 196.64L78.25 197.61L77.96 198.58L77.63 199.55L77.25 200.51L63.86 232.84L63.44 233.79L63 234.7L62.52 235.59L62 236.46L61.46 237.3L60.89 238.11L60.29 238.89L59.66 239.65L59.01 240.37L58.32 241.07L57.62 241.74L56.89 242.38L56.14 242.99L55.37 243.57L54.57 244.11L53.76 244.63L52.93 245.11L52.08 245.56L51.22 245.98L50.34 246.37L49.45 246.72L48.54 247.04L47.62 247.32L46.69 247.56L45.75 247.78L44.81 247.95L43.85 248.09L42.89 248.19L41.92 248.26L40.95 248.28L39.97 248.27L38.99 248.22L38.01 248.13L37.03 248L36.05 247.83L35.07 247.63L34.09 247.37L33.12 247.08L32.15 246.75L31.19 246.37L30.25 245.96L29.33 245.51L28.44 245.03L27.57 244.52L26.73 243.98L25.92 243.4L25.13 242.8L24.38 242.17L23.65 241.52L22.95 240.83L22.28 240.13L21.64 239.4L21.04 238.65L20.46 237.87L19.91 237.08L19.4 236.27L18.91 235.44L18.46 234.59L18.04 233.72L17.66 232.84L17.31 231.95L16.99 231.04L16.71 230.12L16.47 229.2L16.26 228.26L16.08 227.31L15.94 226.35L15.84 225.39L15.78 224.42L15.75 223.45L15.76 222.47L15.81 221.5L15.9 220.52L16.03 219.54L16.2 218.56L16.41 217.58L16.66 216.6L16.95 215.63L17.29 214.67L17.66 213.71L31.06 181.37L31.47 180.43L31.92 179.51L32.4 178.62L32.91 177.75L33.45 176.91L34.03 176.1L34.63 175.32L35.26 174.56L35.91 173.83L36.6 173.13L37.3 172.46L38.03 171.83L38.78 171.22L39.56 170.64L40.35 170.09L41.16 169.58L41.99 169.09L42.84 168.64L43.71 168.23L44.59 167.84L45.48 167.49L46.39 167.18L47.3 166.89L48.23 166.65L49.17 166.44L50.12 166.26L51.08 166.13L52.04 166.02L53.01 165.96L53.98 165.93L54.95 165.95L55.93 166ZM125.7 74.1L126.65 74.19L127.6 74.32L128.55 74.49L129.5 74.69L130.43 74.93L131.36 75.2L132.28 75.51L133.19 75.86L134.08 76.24L134.97 76.67L135.84 77.12L136.69 77.62L137.53 78.15L138.36 78.72L139.16 79.32L139.95 79.96L140.71 80.64L141.46 81.35L142.17 82.09L142.85 82.86L143.49 83.65L144.09 84.45L144.66 85.27L145.19 86.11L145.69 86.97L146.14 87.84L146.56 88.72L146.95 89.62L147.3 90.53L147.61 91.45L147.88 92.38L148.12 93.31L148.32 94.25L148.49 95.2L148.61 96.15L148.71 97.11L148.76 98.07L148.78 99.03L148.76 99.99L148.71 100.95L148.61 101.9L148.49 102.86L148.32 103.8L148.12 104.75L147.88 105.68L147.61 106.61L147.3 107.53L146.95 108.44L146.56 109.33L146.14 110.22L145.69 111.09L145.19 111.95L144.66 112.79L144.09 113.61L143.49 114.41L142.85 115.2L142.17 115.96L141.46 116.71L116.71 141.46L115.96 142.17L115.2 142.85L114.41 143.49L113.61 144.09L112.79 144.66L111.95 145.19L111.09 145.68L110.22 146.14L109.33 146.56L108.44 146.95L107.53 147.3L106.61 147.61L105.68 147.88L104.75 148.12L103.8 148.32L102.86 148.49L101.9 148.61L100.95 148.7L99.99 148.76L99.03 148.78L98.07 148.76L97.11 148.7L96.15 148.61L95.2 148.49L94.25 148.32L93.31 148.12L92.38 147.88L91.45 147.61L90.53 147.3L89.62 146.95L88.72 146.56L87.84 146.14L86.97 145.68L86.11 145.19L85.27 144.66L84.45 144.09L83.64 143.49L82.86 142.85L82.09 142.17L81.35 141.46L80.64 140.71L79.96 139.95L79.32 139.16L78.72 138.36L78.15 137.53L77.62 136.69L77.12 135.84L76.66 134.97L76.24 134.08L75.86 133.19L75.51 132.28L75.2 131.36L74.93 130.43L74.69 129.5L74.49 128.55L74.32 127.61L74.19 126.65L74.1 125.7L74.05 124.74L74.03 123.78L74.05 122.82L74.1 121.86L74.19 120.9L74.32 119.95L74.49 119L74.69 118.06L74.93 117.13L75.2 116.2L75.51 115.28L75.86 114.37L76.24 113.47L76.66 112.59L77.12 111.72L77.62 110.86L78.15 110.02L78.72 109.2L79.32 108.39L79.96 107.61L80.64 106.84L81.35 106.1L106.1 81.35L106.84 80.64L107.61 79.96L108.39 79.32L109.2 78.72L110.02 78.15L110.86 77.62L111.72 77.12L112.59 76.66L113.47 76.24L114.37 75.86L115.28 75.51L116.2 75.2L117.12 74.93L118.06 74.69L119 74.49L119.95 74.32L120.9 74.19L121.86 74.1L122.82 74.05L123.78 74.03L124.74 74.05L125.7 74.1ZM225.39 15.84L226.35 15.94L227.31 16.08L228.26 16.25L229.19 16.46L230.12 16.71L231.04 16.99L231.95 17.31L232.84 17.66L233.72 18.04L234.59 18.46L235.43 18.91L236.27 19.39L237.08 19.91L237.87 20.46L238.65 21.03L239.4 21.64L240.13 22.28L240.83 22.95L241.51 23.65L242.17 24.38L242.8 25.13L243.4 25.92L243.97 26.73L244.52 27.57L245.03 28.43L245.51 29.33L245.96 30.25L246.37 31.19L246.75 32.15L247.08 33.12L247.37 34.09L247.62 35.06L247.83 36.04L248 37.02L248.13 38L248.22 38.98L248.27 39.96L248.28 40.93L248.26 41.9L248.19 42.87L248.09 43.83L247.95 44.79L247.78 45.74L247.57 46.68L247.32 47.61L247.04 48.52L246.72 49.43L246.37 50.32L245.99 51.2L245.57 52.07L245.12 52.92L244.64 53.75L244.12 54.56L243.58 55.35L243 56.13L242.39 56.88L241.75 57.61L241.08 58.32L240.38 59L239.66 59.65L238.9 60.28L238.12 60.88L237.3 61.46L236.46 62L235.6 62.51L234.71 62.99L233.79 63.44L232.84 63.86L200.51 77.25L199.54 77.63L198.58 77.96L197.6 78.25L196.63 78.5L195.65 78.71L194.66 78.88L193.68 79.01L192.7 79.1L191.72 79.15L190.75 79.16L189.77 79.13L188.8 79.07L187.84 78.96L186.89 78.83L185.94 78.65L185 78.44L184.07 78.19L183.15 77.91L182.24 77.59L181.35 77.24L180.47 76.85L179.61 76.44L178.76 75.99L177.93 75.5L177.12 74.99L176.33 74.44L175.55 73.86L174.8 73.25L174.07 72.61L173.37 71.94L172.69 71.25L172.03 70.52L171.41 69.76L170.81 68.98L170.23 68.17L169.69 67.33L169.18 66.47L168.7 65.58L168.25 64.66L167.84 63.72L167.47 62.76L167.13 61.8L166.84 60.82L166.59 59.85L166.38 58.87L166.21 57.89L166.09 56.91L166 55.93L165.95 54.95L165.93 53.98L165.96 53.01L166.02 52.04L166.12 51.08L166.26 50.12L166.44 49.17L166.65 48.23L166.89 47.31L167.18 46.39L167.49 45.48L167.84 44.59L168.23 43.71L168.64 42.84L169.09 41.99L169.58 41.16L170.09 40.35L170.64 39.56L171.22 38.78L171.83 38.03L172.46 37.3L173.13 36.6L173.83 35.91L174.56 35.26L175.32 34.63L176.1 34.03L176.91 33.45L177.75 32.91L178.62 32.4L179.51 31.92L180.43 31.47L181.37 31.06L213.71 17.66L214.67 17.29L215.63 16.95L216.6 16.66L217.58 16.41L218.56 16.2L219.54 16.03L220.52 15.9L221.5 15.81L222.47 15.76L223.45 15.75L224.42 15.78L225.39 15.84Z"
              id="dGKen2kEF"></path>
        <linearGradient id="gradientb1T4setVaR" gradientUnits="userSpaceOnUse" x1="146.88" y1="110.44" x2="493.12"
                        y2="531.05">
            <stop style="stop-color: #9ed362;stop-opacity: 1" offset="0%"></stop>
            <stop style="stop-color: #148f31;stop-opacity: 1" offset="100%"></stop>
        </linearGradient>
    </defs>
    <g>
        <g>
            <use xlink:href="#dGKen2kEF" opacity="1" fill="url(#gradientb1T4setVaR)"></use>
            <g>
                <use xlink:href="#dGKen2kEF" opacity="1" fill-opacity="0" stroke="#000000" stroke-width="1"
                     stroke-opacity="0"></use>
            </g>
        </g>
    </g>
</svg>