<?xml version="1.0" encoding="iso-8859-1"?>
<!-- Generator: Adobe Illustrator 19.0.0, SVG Export Plug-In . SVG Version: 6.00 Build 0)  -->
<svg xmlns="http://www.w3.org/2000/svg" version="1.1" id="Layer_1" x="0px"
     y="0px" viewBox="0 0 512 512" style="enable-background:new 0 0 512 512;" xml:space="preserve" width="512"
     height="512">
<g>
	<path d="M166,0h-15v15c0,29.626,12.656,57.008,32.499,76h145.001C348.344,72.008,361,44.626,361,15V0h-15   c-38.39,0-71.686,21.94-90,52.78C237.686,21.94,204.39,0,166,0z"/>
    <path d="M61,346v77.754C43.563,429.952,31,446.435,31,466c0,24.853,20.147,46,45,46h360c24.853,0,45-21.147,45-46   c0-19.565-12.563-36.048-30-42.246V346c0-82.495-51.306-152.864-123.684-181.355C329.477,160.501,331,155.997,331,151   c0-16.569-13.431-30-30-30h-90c-16.569,0-30,13.431-30,30c0,4.997,1.523,9.501,3.684,13.645C112.306,193.136,61,263.505,61,346z    M357.382,351.039c9.229,13.828,10.093,31.523,2.241,46.187C351.786,411.889,336.581,421,319.94,421v-30   c8.115,0,11.953-5.537,13.228-7.925s3.75-8.643-0.747-15.396l-29.304-43.96l-4.373,12.305l-28.271-10.049l18.501-52.017   l56.045,11.338l-5.947,29.414l-6.826-1.381L357.382,351.039z M194.33,283.744l0.954,6.281l23.275-34.904   c16.729-25.107,58.154-25.107,74.883,0l-24.961,16.641c-5.654-8.496-19.307-8.496-24.961,0l-27.858,41.777l13.37-1.099   l2.461,29.912l-57.891,4.746l-8.921-58.843L194.33,283.744z M154.618,351.039l24.961,16.641   c-4.497,6.753-2.021,13.008-0.747,15.396S183.944,391,192.06,391h42.729l-4.395-4.395l21.211-21.211L292.211,406l-40.605,40.605   l-21.211-21.211l4.395-4.395H192.06c-16.641,0-31.846-9.111-39.683-23.774C144.525,382.563,145.39,364.867,154.618,351.039z"/>
</g>















</svg>
