<svg height="851pt" viewBox="-26 -85 851.24936 851" width="851pt" xmlns="http://www.w3.org/2000/svg"><path d="m763.914062 343.300781c-1.335937-7.296875-3.824218-14.320312-7.3125-20.820312 10.132813-4.117188 18.300782-12.738281 21.347657-24.09375 2.488281-9.320313 1.203125-19.046875-3.617188-27.398438-3.480469-6.023437-8.515625-10.78125-14.535156-13.917969 10.714844-5.828124 20.480469-13.402343 28.726563-22.457031 7.042968-7.746093 9.5-18.359375 6.550781-28.402343-2.945313-10.027344-10.722657-17.632813-20.816407-20.328126l-25.402343-6.804687c-2.351563-.625-4.097657-2.527344-4.566407-4.953125-3.101562-16.085938-15.324218-29.21875-31.144531-33.460938-15.816406-4.230468-32.972656 1.035157-43.691406 13.425782-1.628906 1.871094-4.089844 2.648437-6.433594 2.011718l-25.402343-6.792968c-10.089844-2.703125-20.628907-.007813-28.191407 7.207031-7.570312 7.230469-10.753906 17.648437-8.511719 27.875 2.617188 11.96875 7.273438 23.394531 13.636719 33.785156-6.773437-.289062-13.503906 1.339844-19.511719 4.816407-6.457031 3.726562-11.460937 9.230468-14.5625 15.828124l-7.886718-16.660156c-4.335938-9.167968-10.3125-17.484375-17.511719-24.558594 11.804687-7.515624 19.660156-20.71875 19.660156-35.722656 0-22.238281-17.238281-40.511718-39.054687-42.195312 12.875-11.152344 23.65625-24.699219 31.519531-39.90625 5.550781-10.742188 5.113281-23.324219-1.179687-33.640625-6.269532-10.308594-17.214844-16.46875-29.285157-16.46875h-32.992187c-4.203125 0-7.96875-2.371094-9.828125-6.195313-8.484375-17.476562-26.515625-28.777344-45.929688-28.777344-19.414062 0-37.445312 11.300782-45.929687 28.777344-1.855469 3.824219-5.625 6.195313-9.824219 6.195313h-33c-12.0625 0-23.015625 6.160156-29.285156 16.46875-6.285157 10.316406-6.722657 22.898437-1.167969 33.640625 7.875 15.230468 18.625 28.769531 31.480469 39.90625-21.796875 1.699218-39.023438 19.964844-39.023438 42.195312 0 14.980469 7.832031 28.15625 19.601563 35.6875-7.164063 7.03125-13.0625 15.308594-17.445313 24.59375l-42.421875 89.652344-39.722656-42.550781c-5.484375-5.882813-11.820312-10.761719-18.765625-14.535157 1.148437-1.570312 2.210937-3.210937 3.121094-4.96875 4.582031-8.878906 5.429687-19.015624 2.390625-28.53125-5.539063-17.34375-22.636719-27.851562-40.085938-25.75 6.441406-11.457031 10.941406-24 13.15625-37.082031 1.808594-10.652343-1.988281-21.238281-10.140625-28.320312-8.152343-7.070313-19.152343-9.335938-29.425781-6.050781l-26.375 8.421874c-2.671875.851563-5.550781.097657-7.507812-1.960937-11.742188-12.324219-29.792969-16.945313-46-11.765625-16.207032 5.171875-28.238282 19.402344-30.660157 36.25-.410156 2.816406-2.320312 5.097656-4.984375 5.949219l-26.375 8.421875c-10.277344 3.28125-17.925781 11.5-20.464844 21.984375-2.546874 10.496093.5 21.328125 8.144532 28.964843 9.371094 9.351563 20.324218 16.96875 32.226562 22.578126-15.445312 8.398437-23.292968 26.871093-17.753906 44.226562 3.777344 11.828125 12.925781 20.46875 23.894531 24.113281-3.472656 7.105469-5.796875 14.765625-6.859375 22.710938l-17.996094 134.800781c-7.160156 53.625 9.617188 107.140625 46.039063 146.8125 2.308594 2.515625 5.457031 3.789062 8.617187 3.789062 2.824219 0 5.65625-1.015624 7.90625-3.082031 4.753907-4.367187 5.070313-11.753906.703126-16.519531-32.1875-35.066406-46.425782-80.484375-40.09375-127.902344l18-134.8125c1.296874-9.730468 5.363281-18.824218 11.753906-26.28125.34375-.402344.644531-.824218.921875-1.246094l123.039062-39.300781c.21875.070313.4375.144531.664063.191407 9.933594 2.265624 18.859375 7.398437 25.816406 14.84375l46.0625 49.347656-16.125 34.085937c-9.96875 21.058594-16.433594 43.238281-19.242188 65.902344-.789062 6.410156 3.765626 12.242187 10.167969 13.035156.488281.0625.976563.09375 1.449219.09375 5.816406 0 10.859375-4.335937 11.585938-10.261719 2.5-20.1875 8.277343-39.964843 17.167968-58.773437l69.300782-146.488281c5.628906-11.902344 14.683593-21.539063 26.175781-27.9375h154.589843c11.347657 6.332031 20.59375 16.183594 26.15625 27.9375l69.300782 146.488281c28.164062 59.542969 23.945312 128.320313-11.292969 183.96875-35.238281 55.652344-95.601563 88.871094-161.464844 88.871094-47.804687 0-93.347656-17.5-128.238281-49.273438-33.613281-30.597656-55.429688-72.101562-61.4375-116.871093-.859375-6.398438-6.753906-10.902344-13.148438-10.035157-6.390624.871094-10.882812 6.75-10.027343 13.148438 6.539062 48.699219 29.75 93.949219 65.511719 127.921875-15.101563 12.136718-32.324219 21.347656-51.347657 27.421875-43.503906 13.890625-89.003906 8.898437-128.117187-14.070313-5.5625-3.269531-12.734375-1.402344-16 4.160156-3.269532 5.574219-1.410156 12.734376 4.160156 16.003907 28.261719 16.597656 59.410156 25.019531 91.0625 25.019531 18.660156 0 37.496094-2.925781 56.003906-8.835938 23.25-7.429687 44.183594-18.96875 62.335938-34.324218 36.878906 27.925781 82.089844 43.117187 129.242187 43.117187 31.410157 0 61.695313-6.753906 89.1875-19.292969 10.914063 5.5625 22.527344 10.035157 34.582031 13.261719 15.230469 4.074219 30.5625 6.074219 45.710938 6.074219 40.292969 0 79.234375-14.195312 111.183594-41.320312 4.917968-4.183594 5.523437-11.558594 1.34375-16.476563-4.179688-4.925781-11.554688-5.53125-16.472656-1.347656-38.023438 32.285156-87.488282 43.394531-135.71875 30.484375-4.992188-1.339844-9.890626-2.925782-14.683594-4.734375 26.179687-16.664063 48.820312-39.132813 66.085937-66.394531 39.546875-62.460938 44.289063-139.644532 12.675781-206.46875l-36.214843-76.558594c1.058593-.390625 2.136719-.761719 3.222656-1.066406.28125-.085938.5625-.1875.832031-.289063l119.050782 31.867187c.4375.992188 1.019531 1.945313 1.746093 2.8125 5.316407 6.320313 8.902344 13.953126 10.390625 22.085938l23.152344 127.035156c6.78125 37.164063-.003906 73.578125-19.597656 105.292969-3.398438 5.492187-1.699219 12.691406 3.800781 16.085937 1.90625 1.1875 4.035156 1.746094 6.128906 1.746094 3.917969 0 7.746094-1.96875 9.957031-5.542968 22.367188-36.195313 30.429688-79.4375 22.714844-121.769532zm-742.066406-146.464843c.292969-1.203126 1.347656-4.101563 4.859375-5.222657l26.378907-8.425781c11.09375-3.542969 19.347656-13.3125 21.003906-24.890625 1.179687-8.167969 6.785156-14.800781 14.644531-17.308594 7.847656-2.5 16.261719-.351562 21.949219 5.625 8.070312 8.464844 20.457031 11.652344 31.554687 8.109375l26.378907-8.429687c3.507812-1.128907 6.050781.632812 6.984374 1.4375.925782.808593 3.035157 3.089843 2.414063 6.765625-3.4375 20.273437-13.742187 38.984375-29.023437 52.695312l-24.367188 7.785156-11.171875-34.984374c-1.960937-6.148438-8.535156-9.546876-14.695313-7.578126-6.148437 1.960938-9.542968 8.535157-7.574218 14.6875l11.175781 34.984376-24.496094 7.824218c-.316406-.070312-.632812-.136718-.957031-.171875-19.984375-2.511719-38.835938-11.753906-53.113281-25.992187-2.628907-2.632813-2.230469-5.710938-1.945313-6.910156zm31.273438 65.519531 134.972656-43.109375c1.410156-.449219 2.84375-.664063 4.261719-.664063 5.933593 0 11.464843 3.804688 13.367187 9.761719 1.140625 3.566406.824219 7.375-.894531 10.695312-1.722656 3.335938-4.628906 5.792969-8.199219 6.9375l-134.980468 43.101563c-7.367188 2.355469-15.277344-1.722656-17.625-9.089844-2.351563-7.375 1.726562-15.277343 9.097656-17.632812zm296.421875-193.316407c-2.558594-4.941406-.589844-9.164062.371093-10.746093.960938-1.570313 3.789063-5.234375 9.320313-5.234375h33c13.023437 0 25.136719-7.605469 30.851563-19.367188 4.671874-9.628906 14.210937-15.609375 24.902343-15.609375 10.683594 0 20.222657 5.980469 24.898438 15.597657 5.710937 11.773437 17.824219 19.378906 30.859375 19.378906h32.992187c5.535157 0 8.359375 3.664062 9.316407 5.234375.964843 1.582031 2.933593 5.804687.371093 10.746093-11.136719 21.554688-29.339843 39.121094-51.257812 49.460938-.636719.296875-1.226563.65625-1.773438 1.046875h-33.71875v-45.992187c0-6.457032-5.230469-11.695313-11.6875-11.695313-6.464843 0-11.695312 5.238281-11.695312 11.695313v45.992187h-33.253907c-.132812-.066406-.269531-.144531-.414062-.207031-22.753906-10.234375-41.601562-28.097656-53.082031-50.300782zm14.027343 73.886719h168.832032c10.449218 0 18.957031 8.507813 18.957031 18.953125 0 10.457032-8.507813 18.957032-18.957031 18.957032h-168.832032c-10.453124 0-18.949218-8.5-18.949218-18.957032 0-10.445312 8.496094-18.953125 18.949218-18.953125zm262 30.496094c.777344-.734375 2.898438-2.359375 6-1.53125l25.402344 6.796875c10.898438 2.914062 22.738282-.726562 30.15625-9.296875 4.972656-5.742187 12.625-8.101563 19.96875-6.132813 7.335938 1.960938 12.792969 7.824219 14.238282 15.292969 2.140624 11.125 10.574218 20.195313 21.472656 23.121094l25.402344 6.796875c3.09375.824219 4.128906 3.300781 4.425781 4.324219.304687 1.035156.773437 3.691406-1.398438 6.082031-12.507812 13.734375-29.429687 23.191406-47.65625 26.652344-.59375.105468-1.160156.277344-1.710937.472656l-23.160156-6.203125 8.863281-33.109375c1.667969-6.242188-2.03125-12.648438-8.269531-14.3125-6.226563-1.671875-12.644532 2.023438-14.320313 8.265625l-8.855469 33.109375-22.910156-6.128906c-.230469-.234375-.46875-.460938-.722656-.679688-14.484375-12.15625-24.695313-29.042968-28.746094-47.542968-.691406-3.160157 1.039062-5.234376 1.820312-5.976563zm-24.765624 77.542969c.875-3.285156 2.980468-6.027344 5.921874-7.726563 2.949219-1.707031 6.375-2.15625 9.664063-1.273437l129.960937 34.792968c3.289063.871094 6.03125 2.980469 7.730469 5.917969 1.699219 2.949219 2.15625 6.378907 1.273438 9.664063-1.8125 6.777344-8.804688 10.816406-15.585938 9.003906l-129.96875-34.789062c-6.777343-1.820313-10.8125-8.808594-8.996093-15.589844zm0 0"/><path d="m150.5625 54.78125h.0625c6.457031-.03125 11.660156-5.292969 11.632812-11.753906-.035156-6.433594-5.261718-11.625-11.691406-11.625-.019531 0-.042968 0-.0625 0h-.152344c-6.449218.035156-11.585937 5.296875-11.554687 11.746094.039063 6.4375 5.339844 11.632812 11.765625 11.632812zm0 0"/><path d="m296.390625 126.769531c6.460937 0 11.6875-5.226562 11.6875-11.6875 0-6.453125-5.226563-11.6875-11.6875-11.6875h-.144531c-6.453125 0-11.617188 5.234375-11.617188 11.6875 0 6.460938 5.304688 11.6875 11.761719 11.6875zm0 0"/><path d="m649.285156 96.007812c6.457032 0 11.695313-5.234374 11.695313-11.691406 0-6.453125-5.238281-11.6875-11.695313-11.6875h-.152344c-6.449218 0-11.609374 5.234375-11.609374 11.6875 0 6.457032 5.304687 11.691406 11.761718 11.691406zm0 0"/><path d="m277.25 231.847656c6.457031 0 11.6875-5.234375 11.6875-11.695312 0-6.449219-5.230469-11.6875-11.6875-11.6875h-.148438c-6.457031 0-11.617187 5.238281-11.617187 11.6875 0 6.460937 5.308594 11.695312 11.765625 11.695312zm0 0"/></svg>