<?xml version="1.0"?>
<svg xmlns="http://www.w3.org/2000/svg" height="512px" viewBox="-43 0 495 496" width="512px" class="">
    <g>
        <path d="m296.5 344c0 66.273438-53.726562 120-120 120s-120-53.726562-120-120 53.726562-120 120-120 120 53.726562 120 120zm0 0"
              fill="#f0bc5e" data-original="#F0BC5E" class="active-path" style="fill:#9ed362" data-old_color="#f0bc5e"/>
        <path d="m178.4375 280c20.101562 0 38.589844 9.511719 50.542969 24.960938l-22.945313-2.769532-1.910156 15.886719 46.605469 5.617187 13.503906-50.414062-15.453125-4.144531-7.035156 26.238281c-14.933594-19.40625-38.109375-31.375-63.308594-31.375-16.035156 0-31.503906 4.726562-44.738281 13.671875l8.960937 13.25c10.566406-7.136719 22.945313-10.921875 35.777344-10.921875zm0 0"
              data-original="#000000" class="" style="fill:#757575" data-old_color="#000000"/>
        <path d="m114.4375 344c0-8.449219 1.804688-16.585938 4.933594-24.214844l9.066406 21.214844 14.710938-6.28125-18.441407-43.167969-50.414062 13.503907 4.144531 15.457031 26-6.96875c-3.953125 9.570312-6.007812 19.855469-6.007812 30.457031 0 30.535156 16.992187 57.992188 44.34375 71.632812l7.140624-14.3125c-21.886718-10.921874-35.476562-32.878906-35.476562-57.320312zm0 0"
              data-original="#000000" class="" style="fill:#757575" data-old_color="#000000"/>
        <path d="m186.898438 407.375 13.929687-18.574219-12.800781-9.59375-28.167969 37.546875 36.90625 36.902344 11.308594-11.3125-19.117188-19.121094c39.136719-5.183594 69.464844-38.695312 69.464844-79.222656h-16c.015625 32.40625-24.226563 59.207031-55.523437 63.375zm0 0"
              data-original="#000000" class="" style="fill:#757575" data-old_color="#000000"/>
        <path d="m180.453125 496h-7.90625c-94.871094 0-172.046875-77.175781-172.046875-172.046875 0-45.953125 17.894531-89.160156 50.390625-121.65625l55.953125-55.953125 11.3125 11.3125-55.953125 55.953125c-29.472656 29.480469-45.703125 68.664063-45.703125 110.34375 0 86.046875 70 156.046875 156.046875 156.046875h7.90625c86.046875 0 156.046875-70 156.046875-156.046875 0-41.679687-16.230469-80.863281-45.703125-110.34375l-55.953125-55.953125 11.3125-11.3125 55.953125 55.953125c32.496094 32.503906 50.390625 75.703125 50.390625 121.65625 0 94.871094-77.175781 172.046875-172.046875 172.046875zm0 0"
              data-original="#000000" class="" style="fill:#757575" data-old_color="#000000"/>
        <path d="m159.78125 463.425781c-71.378906-6.488281-127.28125-67.746093-127.28125-139.472656 0-29.128906 8.800781-56.984375 25.449219-80.570313l13.070312 9.234376c-14.726562 20.871093-22.519531 45.535156-22.519531 71.335937 0 63.527344 49.511719 117.789063 112.71875 123.527344zm0 0"
              data-original="#000000" class="" style="fill:#757575" data-old_color="#000000"/>
        <path d="m83.523438 237.558594-11.503907-11.117188 16.074219-16.097656 11.308594 11.3125zm0 0"
              data-original="#000000" class="" style="fill:#757575" data-old_color="#000000"/>
        <path d="m239.523438 123.832031-14.046876-7.65625 46.046876-84.421875c.640624-1.179687.976562-2.496094.976562-3.832031v-3.921875c0-4.414062-3.59375-8-8-8-6.488281 0-9.910156 4.527344-15.425781 12.527344-5.957031 8.671875-13.390625 19.472656-28.597657 19.472656-15.207031 0-22.640624-10.792969-28.601562-19.464844-5.511719-8.007812-8.941406-12.535156-15.421875-12.535156-6.472656 0-9.90625 4.527344-15.402344 12.527344-5.964843 8.671875-13.382812 19.472656-28.589843 19.472656-15.199219 0-22.617188-10.800781-28.578126-19.472656-5.496093-8.007813-8.917968-12.527344-15.382812-12.527344-4.40625 0-8 3.585938-8 8v3.921875c0 1.335937.335938 2.652344.976562 3.820313l46.046876 84.433593-14.046876 7.65625-46.046874-84.425781c-1.914063-3.503906-2.929688-7.476562-2.929688-11.484375v-3.921875c0-13.230469 10.769531-24 24-24 15.199219 0 22.617188 10.800781 28.566406 19.472656 5.496094 8 8.929688 12.527344 15.394532 12.527344 6.472656 0 9.902343-4.527344 15.398437-12.527344 5.96875-8.671875 13.382813-19.472656 28.59375-19.472656 15.214844 0 22.640625 10.800781 28.605469 19.472656 5.503906 8 8.9375 12.527344 15.417968 12.527344 6.480469 0 9.910157-4.527344 15.421876-12.527344 5.960937-8.671875 13.394531-19.472656 28.601562-19.472656 13.230469 0 24 10.769531 24 24v3.921875c0 4.007813-1.015625 7.980469-2.9375 11.492187zm0 0"
              data-original="#000000" class="" style="fill:#757575" data-old_color="#000000"/>
        <path d="m334.820312 177.664062c-11.359374-16.0625-23.777343-33.59375-44.550781-42.929687 6.832031-4.125 12.726563-9.125 18.488281-14.109375 14.613282-12.664062 28.421876-24.625 59.742188-24.625v-16c-37.28125 0-54.785156 15.160156-70.222656 28.527344-12.5625 10.878906-22.480469 19.472656-41.777344 19.472656v16c34.902344 0 48.96875 19.878906 65.257812 42.902344 17.597657 24.890625 37.558594 53.097656 86.742188 53.097656v-16c-40.902344 0-56.832031-22.503906-73.679688-46.335938zm0 0"
              data-original="#000000" class="" style="fill:#757575" data-old_color="#000000"/>
        <path d="m129.136719 67.152344 14.699219-6.300782 24 56-14.699219 6.296876zm0 0" data-original="#000000"
              class="" style="fill:#757575" data-old_color="#000000"/>
        <path d="m185.152344 116.867188 23.988281-56.007813 14.699219 6.296875-23.988282 56.007812zm0 0"
              data-original="#000000" class="" style="fill:#757575" data-old_color="#000000"/>
        <path d="m240.5 160h-128c-13.230469 0-24-10.769531-24-24s10.769531-24 24-24h128c13.230469 0 24 10.769531 24 24s-10.769531 24-24 24zm0 0"
              fill="#f0bc5e" data-original="#F0BC5E" class="active-path" style="fill:#9ed362" data-old_color="#f0bc5e"/>
    </g>
</svg>
