<svg height="512" viewBox="0 0 60 60" width="512" xmlns="http://www.w3.org/2000/svg"><g id="Page-1" fill="none" fill-rule="evenodd"><g id="024---Bin-With-Bin-Bags" fill="rgb(0,0,0)" fill-rule="nonzero"><path id="Shape" d="m30 20c-1.6568542 0-3 1.3431458-3 3v28c0 1.6568542 1.3431458 3 3 3s3-1.3431458 3-3v-28c0-1.6568542-1.3431458-3-3-3zm1 31c0 .5522847-.4477153 1-1 1s-1-.4477153-1-1v-28c0-.5522847.4477153-1 1-1s1 .4477153 1 1z"/><path id="Shape" d="m39 20c-1.6568542 0-3 1.3431458-3 3v28c0 1.6568542 1.3431458 3 3 3s3-1.3431458 3-3v-28c0-1.6568542-1.3431458-3-3-3zm1 31c0 .5522847-.4477153 1-1 1s-1-.4477153-1-1v-28c0-.5522847.4477153-1 1-1s1 .4477153 1 1z"/><path id="Shape" d="m9.567 38.579c-3.067 1.473-5.567 5.699-5.567 9.421 0 .5522847.44771525 1 1 1s1-.4477153 1-1c0-2.925 2.071-6.485 4.433-7.618.4679516-.2547649.6539723-.8316898.4229765-1.3118198-.2309959-.4801299-.7978746-.6948266-1.2889765-.4881802z"/><path id="Shape" d="m51.385 34.657c1.0263777-.9392823 1.6121521-2.2657077 1.615-3.657v-1c0-1.1045695-.8954305-2-2-2h-4v-19c0-1.65685425-1.3431458-3-3-3h-5v-3c0-1.65685425-1.3431458-3-3-3h-12c-1.6568542 0-3 1.34314575-3 3v3h-5c-1.6568542 0-3 1.34314575-3 3v19h-4c-1.1045695 0-2 .8954305-2 2v1c.0028479 1.3912923.58862234 2.7177177 1.615 3.657-5.043 1.956-8.615 8.002-8.615 13.343-.01101351 3.655131 1.6494396 7.1147755 4.50799751 9.3926584 2.85855792 2.2778829 6.60157879 3.1240741 10.16200249 2.2973416.4132227.2052746.8686014.3114155 1.33.31h28c.459937-.0028652.9128918-.1127658 1.323-.321 3.5612134.843515 7.3125495.0055112 10.1762814-2.2732599 2.8637319-2.2787712 4.5228554-5.7460587 4.5007186-9.4057401 0-5.341-3.572-11.387-8.615-13.343zm-.385-4.657v1c0 1.6568542-1.3431458 3-3 3-.3424707-.0076162-.6809438-.0753108-1-.2v-3.8zm-28-27c0-.55228475.4477153-1 1-1h12c.5522847 0 1 .44771525 1 1v3h-14zm-7 5h28c.5522847 0 1 .44771525 1 1v5h-30v-5c0-.55228475.4477153-1 1-1zm-7 23v-1h6v1c0 1.6568542-1.3431458 3-3 3s-3-1.3431458-3-3zm-7 17c0-5.435 4.46-12 10-12s10 6.565 10 12c0 5.5228475-4.4771525 10-10 10s-10-4.4771525-10-10zm20-7.246c-.5630679-1.0009902-1.2337054-1.9375355-2-2.793v-14.961c0-.5522847.4477153-1 1-1 .2694422-.0008733.5272084.1099083.712.306.1865985.1823963.2906276.4330776.288.694zm22 17.246h-25.381c3.3571696-2.2200136 5.3778338-5.9751972 5.381-10v-25c-.0082058-1.6534434-1.3465566-2.9917942-3-3-1.6568542 0-3 1.3431458-3 3v13.118c-.801764-.6027421-1.6814139-1.0942023-2.615-1.461 1.0263777-.9392823 1.6121521-2.2657077 1.615-3.657v-1c0-1.1045695-.8954305-2-2-2v-12h30v41c0 .5522847-.4477153 1-1 1zm4 0c-.3881122-.0028779-.7757433-.0279186-1.161-.075.1026209-.2977825.1569735-.6100567.161-.925v-21.114c.3285062.0724069.6636258.1106106 1 .114 5.54 0 10 6.565 10 12-.0060624 5.5203344-4.4796656 9.9939376-10 10z"/></g></g></svg>