<?xml version="1.0" encoding="UTF-8" standalone="no"?>
<!DOCTYPE svg PUBLIC "-//W3C//DTD SVG 1.1//EN" "http://www.w3.org/Graphics/SVG/1.1/DTD/svg11.dtd">
<svg version="1.1" xmlns="http://www.w3.org/2000/svg" xmlns:xlink="http://www.w3.org/1999/xlink" preserveAspectRatio="xMidYMid meet" viewBox="-1 -1 644 644" width="640" height="640"><defs><path d="M359.18 2.37L371.94 4.18L384.53 6.5L396.94 9.29L409.17 12.56L421.2 16.3L433.02 20.49L444.62 25.13L455.99 30.2L467.12 35.69L478 41.6L488.62 47.91L498.97 54.61L509.05 61.7L518.83 69.16L528.31 76.98L537.48 85.15L546.32 93.67L554.84 102.52L563.02 111.69L570.84 121.17L578.3 130.95L585.38 141.02L592.09 151.37L598.4 161.99L604.31 172.88L609.8 184.01L614.87 195.38L619.51 206.98L623.7 218.8L627.44 230.83L630.71 243.05L633.5 255.47L635.82 268.06L637.63 280.82L638.94 293.74L639.73 306.8L640 320L639.73 333.2L638.94 346.26L637.63 359.18L635.82 371.94L633.5 384.53L630.71 396.94L627.44 409.17L623.7 421.2L619.51 433.02L614.87 444.62L609.8 455.99L604.31 467.12L598.4 478L592.09 488.62L585.39 498.97L578.3 509.05L570.84 518.83L563.02 528.31L554.85 537.48L546.33 546.32L537.48 554.84L528.31 563.02L518.83 570.84L509.05 578.3L498.98 585.38L488.63 592.09L478.01 598.4L467.12 604.31L455.99 609.8L444.62 614.87L433.02 619.51L421.2 623.7L409.17 627.44L396.95 630.71L384.53 633.5L371.94 635.82L359.18 637.63L346.26 638.94L333.2 639.73L320 640L306.8 639.73L293.74 638.94L280.82 637.63L268.06 635.82L255.47 633.5L243.06 630.71L230.83 627.44L218.8 623.7L206.98 619.51L195.38 614.87L184.01 609.8L172.88 604.31L162 598.4L151.38 592.09L141.03 585.39L130.95 578.3L121.17 570.84L111.69 563.02L102.52 554.85L93.68 546.33L85.16 537.48L76.98 528.31L69.16 518.83L61.7 509.05L54.62 498.98L47.91 488.63L41.6 478.01L35.69 467.12L30.2 455.99L25.13 444.62L20.49 433.02L16.3 421.2L12.56 409.17L9.29 396.95L6.5 384.53L4.18 371.94L2.37 359.18L1.06 346.26L0.27 333.2L0 320L0.27 306.8L1.06 293.74L2.37 280.82L4.18 268.06L6.5 255.47L9.29 243.06L12.56 230.83L16.3 218.8L20.49 206.98L25.13 195.38L30.2 184.01L35.69 172.88L41.6 162L47.91 151.38L54.61 141.03L61.7 130.95L69.16 121.17L76.98 111.69L85.15 102.52L93.67 93.68L102.52 85.16L111.69 76.98L121.17 69.16L130.95 61.7L141.02 54.62L151.37 47.91L161.99 41.6L172.88 35.69L184.01 30.2L195.38 25.13L206.98 20.49L218.8 16.3L230.83 12.56L243.05 9.29L255.47 6.5L268.06 4.18L280.82 2.37L293.74 1.06L306.8 0.27L320 0L333.2 0.27L346.26 1.06L346.26 1.06L359.18 2.37ZM286.94 52L276.18 53.53L265.55 55.48L255.08 57.84L244.76 60.6L234.62 63.75L224.64 67.29L214.86 71.2L205.26 75.48L195.87 80.11L186.69 85.1L177.72 90.42L168.99 96.08L160.49 102.06L152.24 108.35L144.24 114.95L136.5 121.85L129.04 129.03L121.85 136.5L114.96 144.24L108.36 152.24L102.06 160.49L96.08 168.99L90.42 177.72L85.1 186.68L80.12 195.86L75.48 205.26L71.2 214.85L67.29 224.64L63.75 234.61L60.6 244.76L57.84 255.08L55.48 265.55L53.53 276.17L52 286.94L50.89 297.84L50.22 308.86L50 320L50.22 331.14L50.89 342.16L52 353.06L53.53 363.82L55.48 374.45L57.84 384.92L60.6 395.24L63.75 405.38L67.29 415.36L71.2 425.14L75.48 434.74L80.11 444.13L85.1 453.31L90.42 462.28L96.08 471.01L102.06 479.51L108.35 487.76L114.95 495.76L121.85 503.5L129.03 510.96L136.5 518.15L144.24 525.04L152.24 531.64L160.49 537.94L168.99 543.92L177.72 549.58L186.68 554.9L195.86 559.88L205.26 564.52L214.85 568.8L224.64 572.71L234.61 576.25L244.76 579.4L255.08 582.16L265.55 584.52L276.17 586.47L286.94 588L297.84 589.11L308.86 589.78L320 590L331.14 589.78L342.16 589.11L353.06 588L363.82 586.47L374.45 584.52L384.92 582.16L395.24 579.4L405.38 576.25L415.36 572.71L425.14 568.8L434.74 564.52L444.13 559.89L453.31 554.9L462.28 549.58L471.01 543.92L479.51 537.94L487.76 531.65L495.76 525.05L503.5 518.15L510.96 510.97L518.15 503.5L525.04 495.76L531.64 487.76L537.94 479.51L543.92 471.01L549.58 462.28L554.9 453.32L559.88 444.14L564.52 434.74L568.8 425.15L572.71 415.36L576.25 405.39L579.4 395.24L582.16 384.92L584.52 374.45L586.47 363.83L588 353.06L589.11 342.16L589.78 331.14L590 320L589.78 308.86L589.11 297.84L588 286.94L586.47 276.18L584.52 265.55L582.16 255.08L579.4 244.76L576.25 234.62L572.71 224.64L568.8 214.86L564.52 205.26L559.89 195.87L554.9 186.69L549.58 177.72L543.92 168.99L537.94 160.49L531.65 152.24L525.05 144.24L518.15 136.5L510.97 129.04L503.5 121.85L495.76 114.96L487.76 108.36L479.51 102.06L471.01 96.08L462.28 90.42L453.32 85.1L444.14 80.12L434.74 75.48L425.15 71.2L415.36 67.29L405.39 63.75L395.24 60.6L384.92 57.84L374.45 55.48L363.83 53.53L353.06 52L342.16 50.89L331.14 50.22L320 50L308.86 50.22L297.84 50.89L297.84 50.89L286.94 52ZM324.13 402.95L325.47 403.14L326.8 403.39L328.11 403.68L329.4 404.03L330.67 404.42L331.91 404.86L333.14 405.35L334.34 405.89L335.51 406.47L336.66 407.09L337.78 407.76L338.87 408.46L339.93 409.21L340.96 410L341.96 410.82L342.93 411.69L343.86 412.59L344.76 413.52L345.63 414.49L346.45 415.49L347.24 416.52L347.99 417.58L348.69 418.67L349.36 419.79L349.98 420.94L350.56 422.11L351.1 423.31L351.59 424.54L352.03 425.78L352.42 427.05L352.77 428.34L353.06 429.65L353.31 430.98L353.5 432.32L353.64 433.68L353.72 435.06L353.75 436.45L353.72 437.84L353.64 439.22L353.5 440.58L353.31 441.92L353.06 443.25L352.77 444.56L352.42 445.85L352.03 447.12L351.59 448.36L351.1 449.59L350.56 450.79L349.98 451.96L349.36 453.11L348.69 454.23L347.99 455.32L347.24 456.38L346.45 457.41L345.63 458.41L344.76 459.38L343.86 460.31L342.93 461.21L341.96 462.08L340.96 462.9L339.93 463.69L338.87 464.44L337.78 465.14L336.66 465.81L335.51 466.43L334.34 467.01L333.14 467.55L331.91 468.04L330.67 468.48L329.4 468.87L328.11 469.22L326.8 469.51L325.47 469.76L324.13 469.95L322.77 470.09L321.39 470.17L320 470.2L318.61 470.17L317.23 470.09L315.87 469.95L314.53 469.76L313.2 469.51L311.89 469.22L310.6 468.87L309.33 468.48L308.09 468.04L306.86 467.55L305.66 467.01L304.49 466.43L303.34 465.81L302.22 465.14L301.13 464.44L300.07 463.69L299.04 462.9L298.04 462.08L297.07 461.21L296.14 460.31L295.24 459.38L294.37 458.41L293.55 457.41L292.76 456.38L292.01 455.32L291.31 454.23L290.64 453.11L290.02 451.96L289.44 450.79L288.9 449.59L288.41 448.36L287.97 447.12L287.58 445.85L287.23 444.56L286.94 443.25L286.69 441.92L286.5 440.58L286.36 439.22L286.28 437.84L286.25 436.45L286.28 435.06L286.36 433.68L286.5 432.32L286.69 430.98L286.94 429.65L287.23 428.34L287.58 427.05L287.97 425.78L288.41 424.54L288.9 423.31L289.44 422.11L290.02 420.94L290.64 419.79L291.31 418.67L292.01 417.58L292.76 416.52L293.55 415.49L294.37 414.49L295.24 413.52L296.14 412.59L297.07 411.69L298.04 410.82L299.04 410L300.07 409.21L301.13 408.46L302.22 407.76L303.34 407.09L304.49 406.47L305.66 405.89L306.86 405.35L308.09 404.86L309.33 404.42L310.6 404.03L311.89 403.68L313.2 403.39L314.53 403.14L315.87 402.95L317.23 402.81L318.61 402.73L320 402.7L321.39 402.73L322.77 402.81L322.77 402.81L324.13 402.95ZM323.06 161.28L324.06 161.42L325.04 161.6L326.01 161.82L326.96 162.08L327.9 162.37L328.83 162.7L329.73 163.06L330.62 163.46L331.49 163.89L332.34 164.35L333.17 164.84L333.98 165.37L334.76 165.92L335.53 166.5L336.27 167.11L336.99 167.75L337.68 168.42L338.34 169.11L338.98 169.83L339.59 170.57L340.18 171.33L340.73 172.12L341.25 172.93L341.75 173.76L342.21 174.61L342.64 175.48L343.04 176.36L343.4 177.27L343.73 178.19L344.02 179.13L344.27 180.09L344.49 181.06L344.67 182.04L344.81 183.04L344.92 184.05L344.98 185.07L345 186.1L345 347.09L344.98 348.12L344.92 349.14L344.81 350.15L344.67 351.14L344.49 352.13L344.27 353.1L344.02 354.05L343.73 354.99L343.4 355.91L343.04 356.82L342.64 357.71L342.21 358.58L341.75 359.43L341.25 360.26L340.73 361.07L340.18 361.85L339.59 362.62L338.98 363.36L338.34 364.07L337.68 364.77L336.99 365.43L336.27 366.07L335.53 366.68L334.76 367.26L333.98 367.82L333.17 368.34L332.34 368.84L331.49 369.3L330.62 369.73L329.73 370.12L328.83 370.49L327.9 370.81L326.96 371.11L326.01 371.36L325.04 371.58L324.06 371.76L323.06 371.9L322.05 372L321.03 372.07L320 372.09L318.97 372.07L317.95 372L316.94 371.9L315.94 371.76L314.96 371.58L313.99 371.36L313.04 371.11L312.1 370.81L311.17 370.49L310.27 370.12L309.38 369.73L308.51 369.3L307.66 368.84L306.83 368.34L306.02 367.82L305.24 367.26L304.47 366.68L303.73 366.07L303.01 365.43L302.32 364.77L301.66 364.07L301.02 363.36L300.41 362.62L299.82 361.85L299.27 361.07L298.75 360.26L298.25 359.43L297.79 358.58L297.36 357.71L296.96 356.82L296.6 355.91L296.27 354.99L295.98 354.05L295.73 353.1L295.51 352.13L295.33 351.14L295.19 350.15L295.08 349.14L295.02 348.12L295 347.09L295 186.1L295.02 185.07L295.08 184.05L295.19 183.04L295.33 182.04L295.51 181.06L295.73 180.09L295.98 179.13L296.27 178.19L296.6 177.27L296.96 176.36L297.36 175.48L297.79 174.61L298.25 173.76L298.75 172.93L299.27 172.12L299.82 171.33L300.41 170.57L301.02 169.83L301.66 169.11L302.32 168.42L303.01 167.75L303.73 167.11L304.47 166.5L305.24 165.92L306.02 165.37L306.83 164.84L307.66 164.35L308.51 163.89L309.38 163.46L310.27 163.06L311.17 162.7L312.1 162.37L313.04 162.08L313.99 161.82L314.96 161.6L315.94 161.42L316.94 161.28L317.95 161.18L318.97 161.12L320 161.1L321.03 161.12L322.05 161.18L322.05 161.18L323.06 161.28Z" id="c3AehrrBR6"></path><linearGradient id="gradiente2CKTA7ifv" gradientUnits="userSpaceOnUse" x1="93.15" y1="99.99" x2="536.4" y2="554.93"><stop style="stop-color: #9ed362;stop-opacity: 1" offset="0%"></stop><stop style="stop-color: #148f31;stop-opacity: 1" offset="100%"></stop></linearGradient></defs><g><g><use xlink:href="#c3AehrrBR6" opacity="1" fill="url(#gradiente2CKTA7ifv)"></use><g><use xlink:href="#c3AehrrBR6" opacity="1" fill-opacity="0" stroke="#000000" stroke-width="1" stroke-opacity="0"></use></g></g></g></svg>