<?xml version="1.0" encoding="UTF-8" standalone="no"?>
<!DOCTYPE svg PUBLIC "-//W3C//DTD SVG 1.1//EN" "http://www.w3.org/Graphics/SVG/1.1/DTD/svg11.dtd">
<svg version="1.1" xmlns="http://www.w3.org/2000/svg" xmlns:xlink="http://www.w3.org/1999/xlink" preserveAspectRatio="xMidYMid meet" viewBox="-1 -1 644 644" width="640" height="640"><defs><path d="M346.26 1.06L359.18 2.37L371.94 4.18L384.53 6.5L396.94 9.29L409.17 12.56L421.2 16.3L433.02 20.49L444.62 25.13L455.99 30.2L467.12 35.69L478 41.6L488.62 47.91L498.97 54.61L509.05 61.7L518.83 69.16L528.31 76.98L537.48 85.15L546.32 93.67L554.84 102.52L563.02 111.69L570.84 121.17L578.3 130.95L585.38 141.02L592.09 151.37L598.4 161.99L604.31 172.88L609.8 184.01L614.87 195.38L619.51 206.98L623.7 218.8L627.44 230.83L630.71 243.05L633.5 255.47L635.82 268.06L637.63 280.82L638.94 293.74L639.73 306.8L640 320L639.73 333.2L638.94 346.26L637.63 359.18L635.82 371.94L633.5 384.53L630.71 396.94L627.44 409.17L623.7 421.2L619.51 433.02L614.87 444.62L609.8 455.99L604.31 467.12L598.4 478L592.09 488.62L585.39 498.97L578.3 509.05L570.84 518.83L563.02 528.31L554.85 537.48L546.33 546.32L537.48 554.84L528.31 563.02L518.83 570.84L509.05 578.3L498.98 585.38L488.63 592.09L478.01 598.4L467.12 604.31L455.99 609.8L444.62 614.87L433.02 619.51L421.2 623.7L409.17 627.44L396.95 630.71L384.53 633.5L371.94 635.82L359.18 637.63L346.26 638.94L333.2 639.73L320 640L306.8 639.73L293.74 638.94L280.82 637.63L268.06 635.82L255.47 633.5L243.06 630.71L230.83 627.44L218.8 623.7L206.98 619.51L195.38 614.87L184.01 609.8L172.88 604.31L162 598.4L151.38 592.09L141.03 585.39L130.95 578.3L121.17 570.84L111.69 563.02L102.52 554.85L93.68 546.33L85.16 537.48L76.98 528.31L69.16 518.83L61.7 509.05L54.62 498.98L47.91 488.63L41.6 478.01L35.69 467.12L30.2 455.99L25.13 444.62L20.49 433.02L16.3 421.2L12.56 409.17L9.29 396.95L6.5 384.53L4.18 371.94L2.37 359.18L1.06 346.26L0.27 333.2L0 320L0.27 306.8L1.06 293.74L2.37 280.82L4.18 268.06L6.5 255.47L9.29 243.06L12.56 230.83L16.3 218.8L20.49 206.98L25.13 195.38L30.2 184.01L35.69 172.88L41.6 162L47.91 151.38L54.61 141.03L61.7 130.95L69.16 121.17L76.98 111.69L85.15 102.52L93.67 93.68L102.52 85.16L111.69 76.98L121.17 69.16L130.95 61.7L141.02 54.62L151.37 47.91L161.99 41.6L172.88 35.69L184.01 30.2L195.38 25.13L206.98 20.49L218.8 16.3L230.83 12.56L243.05 9.29L255.47 6.5L268.06 4.18L280.82 2.37L293.74 1.06L306.8 0.27L320 0L333.2 0.27L346.26 1.06ZM297.84 50.89L286.94 52L276.18 53.53L265.55 55.48L255.08 57.84L244.76 60.6L234.62 63.75L224.64 67.29L214.86 71.2L205.26 75.48L195.87 80.11L186.69 85.1L177.72 90.42L168.99 96.08L160.49 102.06L152.24 108.35L144.24 114.95L136.5 121.85L129.04 129.03L121.85 136.5L114.96 144.24L108.36 152.24L102.06 160.49L96.08 168.99L90.42 177.72L85.1 186.68L80.12 195.86L75.48 205.26L71.2 214.85L67.29 224.64L63.75 234.61L60.6 244.76L57.84 255.08L55.48 265.55L53.53 276.17L52 286.94L50.89 297.84L50.22 308.86L50 320L50.22 331.14L50.89 342.16L52 353.06L53.53 363.82L55.48 374.45L57.84 384.92L60.6 395.24L63.75 405.38L67.29 415.36L71.2 425.14L75.48 434.74L80.11 444.13L85.1 453.31L90.42 462.28L96.08 471.01L102.06 479.51L108.35 487.76L114.95 495.76L121.85 503.5L129.03 510.96L136.5 518.15L144.24 525.04L152.24 531.64L160.49 537.94L168.99 543.92L177.72 549.58L186.68 554.9L195.86 559.88L205.26 564.52L214.85 568.8L224.64 572.71L234.61 576.25L244.76 579.4L255.08 582.16L265.55 584.52L276.17 586.47L286.94 588L297.84 589.11L308.86 589.78L320 590L331.14 589.78L342.16 589.11L353.06 588L363.82 586.47L374.45 584.52L384.92 582.16L395.24 579.4L405.38 576.25L415.36 572.71L425.14 568.8L434.74 564.52L444.13 559.89L453.31 554.9L462.28 549.58L471.01 543.92L479.51 537.94L487.76 531.65L495.76 525.05L503.5 518.15L510.96 510.97L518.15 503.5L525.04 495.76L531.64 487.76L537.94 479.51L543.92 471.01L549.58 462.28L554.9 453.32L559.88 444.14L564.52 434.74L568.8 425.15L572.71 415.36L576.25 405.39L579.4 395.24L582.16 384.92L584.52 374.45L586.47 363.83L588 353.06L589.11 342.16L589.78 331.14L590 320L589.78 308.86L589.11 297.84L588 286.94L586.47 276.18L584.52 265.55L582.16 255.08L579.4 244.76L576.25 234.62L572.71 224.64L568.8 214.86L564.52 205.26L559.89 195.87L554.9 186.69L549.58 177.72L543.92 168.99L537.94 160.49L531.65 152.24L525.05 144.24L518.15 136.5L510.97 129.04L503.5 121.85L495.76 114.96L487.76 108.36L479.51 102.06L471.01 96.08L462.28 90.42L453.32 85.1L444.14 80.12L434.74 75.48L425.15 71.2L415.36 67.29L405.39 63.75L395.24 60.6L384.92 57.84L374.45 55.48L363.83 53.53L353.06 52L342.16 50.89L331.14 50.22L320 50L308.86 50.22L297.84 50.89ZM426.01 116.44L433.44 117.81L440.99 119.75L448.68 122.28L456.51 125.44L457.16 125.74L457.79 126.07L458.39 126.42L458.98 126.8L459.54 127.2L460.08 127.61L460.61 128.05L461.1 128.51L461.58 128.99L462.03 129.49L462.46 130L462.87 130.53L463.25 131.07L463.61 131.63L463.94 132.2L464.25 132.78L464.54 133.38L464.8 133.99L465.03 134.6L465.24 135.23L465.42 135.86L465.58 136.5L465.71 137.15L465.81 137.8L465.89 138.46L465.94 139.12L465.96 139.78L465.95 140.44L465.92 141.11L465.85 141.78L465.76 142.44L465.64 143.1L465.49 143.76L465.31 144.42L465.1 145.08L464.86 145.72L464.59 146.37L464.29 147L463.96 147.63L463.6 148.25L462.92 149.35L462.24 150.46L461.57 151.6L460.9 152.74L460.22 153.9L459.55 155.08L458.88 156.27L458.21 157.47L457.54 158.69L456.87 159.93L456.2 161.18L455.53 162.44L454.86 163.72L454.19 165.02L453.52 166.33L452.85 167.66L452.19 169L451.52 170.36L450.85 171.74L450.18 173.13L449.51 174.53L448.85 175.96L448.18 177.4L447.51 178.85L446.84 180.32L446.18 181.81L445.51 183.31L444.84 184.83L444.17 186.37L443.5 187.93L442.83 189.5L442.16 191.08L441.5 192.69L440.82 194.31L440.15 195.95L439.48 197.61L438.81 199.28L438.14 200.97L437.47 202.68L436.79 204.4L438.22 206.24L439.64 208.09L441.06 209.94L442.48 211.79L443.9 213.65L445.31 215.52L446.72 217.39L448.13 219.27L449.53 221.15L450.93 223.03L452.33 224.93L453.73 226.83L455.13 228.73L456.52 230.64L457.91 232.56L459.3 234.49L460.69 236.42L462.07 238.36L463.45 240.3L464.84 242.25L466.22 244.21L467.59 246.18L468.97 248.15L470.35 250.13L471.72 252.12L473.1 254.11L474.47 256.11L475.84 258.12L477.21 260.14L478.58 262.17L479.95 264.2L481.32 266.25L482.69 268.3L484.05 270.36L485.42 272.43L486.78 274.5L488.15 276.59L489.52 278.68L490.88 280.79L492.25 282.9L492.84 283.89L493.36 284.89L493.79 285.9L494.15 286.92L494.43 287.93L494.63 288.94L494.77 289.95L494.84 290.96L494.83 291.96L494.77 292.94L494.64 293.92L494.45 294.88L494.2 295.82L493.89 296.74L493.53 297.65L493.11 298.52L492.64 299.37L492.13 300.19L491.57 300.98L490.96 301.73L490.31 302.45L489.62 303.13L488.89 303.77L488.12 304.36L487.32 304.91L486.49 305.41L485.63 305.85L484.74 306.25L483.82 306.59L482.88 306.87L481.91 307.09L480.93 307.25L479.92 307.34L478.91 307.37L477.87 307.32L476.83 307.2L475.77 307.01L474.71 306.74L473.64 306.4L472.57 305.97L466.45 303.52L460.39 301.61L454.41 300.2L448.5 299.27L442.64 298.79L436.84 298.73L431.09 299.07L425.38 299.79L419.71 300.86L414.08 302.24L408.47 303.92L402.89 305.88L397.33 308.07L391.78 310.48L386.24 313.09L380.7 315.86L375.15 318.77L369.61 321.79L364.04 324.9L358.46 328.08L352.86 331.28L347.23 334.5L341.56 337.71L335.86 340.87L330.11 343.96L324.32 346.96L318.47 349.84L312.56 352.57L306.58 355.13L300.54 357.49L294.42 359.63L288.22 361.52L281.93 363.13L275.56 364.45L269.09 365.43L262.51 366.06L255.83 366.31L249.04 366.16L242.14 365.57L235.11 364.52L265.26 523.08L265.37 523.73L265.45 524.37L265.5 525.01L265.53 525.65L265.54 526.28L265.51 526.91L265.47 527.53L265.4 528.15L265.3 528.76L265.19 529.37L265.04 529.97L264.88 530.56L264.69 531.14L264.48 531.72L264.25 532.28L264 532.84L263.73 533.38L263.44 533.92L263.13 534.44L262.79 534.95L262.44 535.44L262.07 535.92L261.68 536.39L261.28 536.84L260.85 537.28L260.41 537.7L259.95 538.11L259.48 538.5L258.99 538.87L258.49 539.22L257.96 539.55L257.43 539.86L256.88 540.16L256.32 540.43L255.74 540.68L255.15 540.91L254.55 541.11L253.93 541.3L253.3 541.45L252.67 541.59L252.02 541.7L251.38 541.78L250.74 541.84L250.11 541.87L249.47 541.87L248.84 541.85L248.22 541.8L247.6 541.73L246.99 541.64L246.38 541.52L245.78 541.38L245.19 541.21L244.61 541.03L244.03 540.82L243.47 540.59L242.91 540.34L242.37 540.06L241.84 539.77L241.32 539.46L240.81 539.13L240.31 538.77L239.83 538.4L239.36 538.02L238.91 537.61L238.47 537.19L238.05 536.74L237.65 536.29L237.26 535.81L236.89 535.32L236.54 534.82L236.2 534.3L235.89 533.76L235.6 533.21L235.33 532.65L235.08 532.07L234.85 531.48L234.64 530.88L234.46 530.26L234.3 529.63L234.16 529L164.39 162.03L164.28 161.39L164.2 160.75L164.14 160.11L164.11 159.47L164.11 158.84L164.13 158.21L164.18 157.59L164.25 156.97L164.34 156.36L164.46 155.75L164.6 155.15L164.77 154.56L164.95 153.97L165.16 153.4L165.39 152.84L165.64 152.28L165.92 151.74L166.21 151.2L166.52 150.68L166.85 150.17L167.2 149.68L167.57 149.2L167.96 148.73L168.37 148.27L168.79 147.84L169.23 147.42L169.69 147.01L170.17 146.62L170.66 146.25L171.16 145.9L171.68 145.57L172.22 145.26L172.77 144.96L173.33 144.69L173.91 144.44L174.5 144.21L175.1 144.01L175.71 143.82L176.34 143.66L176.98 143.53L177.62 143.42L178.26 143.34L178.9 143.28L179.54 143.25L180.17 143.25L180.8 143.27L181.43 143.32L182.04 143.39L182.66 143.48L183.26 143.6L183.86 143.74L184.45 143.91L185.04 144.09L185.61 144.3L186.18 144.53L186.73 144.78L187.28 145.06L187.81 145.35L188.33 145.66L188.84 145.99L189.33 146.34L189.82 146.71L190.28 147.1L190.74 147.51L191.17 147.93L191.6 148.37L192 148.83L192.39 149.31L192.76 149.8L193.11 150.3L193.44 150.82L193.76 151.36L194.05 151.91L194.32 152.47L194.57 153.05L194.8 153.64L195.01 154.24L195.19 154.86L195.35 155.48L195.48 156.12L199.76 178.64L206.1 180.52L212.37 181.85L218.59 182.64L224.75 182.94L230.86 182.77L236.93 182.17L242.96 181.17L248.97 179.79L254.94 178.07L260.9 176.04L266.84 173.73L272.77 171.17L278.69 168.39L284.62 165.43L290.55 162.32L296.49 159.08L302.45 155.75L308.43 152.36L314.44 148.94L320.48 145.52L326.56 142.13L332.68 138.81L338.86 135.58L345.08 132.48L351.37 129.53L357.72 126.77L364.15 124.24L370.65 121.95L377.23 119.95L383.89 118.26L390.65 116.91L397.51 115.94L404.47 115.38L411.53 115.25L418.71 115.6L426.01 116.44ZM400.13 147.68L394.87 148.47L389.64 149.56L384.42 150.92L379.23 152.53L374.05 154.37L368.87 156.42L363.71 158.66L358.54 161.07L353.37 163.62L348.2 166.31L343.02 169.09L337.83 171.96L332.62 174.89L327.39 177.87L322.13 180.87L316.85 183.86L311.54 186.84L306.19 189.77L300.8 192.64L295.37 195.43L289.9 198.12L284.37 200.67L278.79 203.08L273.15 205.33L267.46 207.38L261.69 209.23L255.86 210.85L249.96 212.21L243.98 213.3L237.92 214.1L231.77 214.59L225.54 214.74L219.22 214.53L212.81 213.95L206.29 212.97L228.58 330.19L234.07 331.86L239.51 333.11L244.89 333.97L250.23 334.44L255.52 334.56L260.77 334.33L265.98 333.79L271.16 332.95L276.31 331.83L281.44 330.45L286.54 328.83L291.63 326.99L296.71 324.95L301.77 322.73L306.84 320.35L311.9 317.83L316.96 315.19L322.03 312.45L327.12 309.63L332.22 306.75L337.33 303.83L342.47 300.89L347.64 297.94L352.84 295.02L358.08 292.13L363.35 289.31L368.67 286.56L374.03 283.91L379.45 281.38L384.92 278.98L390.45 276.75L396.04 274.69L401.7 272.83L407.44 271.19L413.24 269.79L419.13 268.64L425.1 267.77L431.16 267.2L437.31 266.95L443.55 267.03L442.64 265.72L441.73 264.42L440.82 263.11L439.9 261.82L438.99 260.52L438.08 259.23L437.16 257.94L436.25 256.66L435.33 255.37L434.41 254.09L433.5 252.82L432.58 251.55L431.66 250.27L430.74 249.01L429.82 247.74L428.89 246.48L427.97 245.22L427.05 243.97L426.12 242.71L425.2 241.46L424.27 240.21L423.34 238.97L422.41 237.73L421.48 236.49L420.55 235.25L419.62 234.01L418.68 232.78L417.75 231.55L416.81 230.32L415.87 229.1L414.93 227.87L413.99 226.65L413.05 225.44L412.11 224.22L411.16 223.01L410.22 221.79L409.27 220.58L408.32 219.38L407.37 218.17L406.42 216.97L406.16 216.64L405.92 216.3L405.69 215.97L405.46 215.62L405.25 215.27L405.04 214.92L404.84 214.56L404.66 214.2L404.48 213.83L404.31 213.46L404.16 213.09L404.01 212.71L403.87 212.34L403.75 211.95L403.63 211.57L403.52 211.18L403.42 210.79L403.33 210.4L403.26 210L403.19 209.6L403.13 209.21L403.08 208.81L403.05 208.41L403.02 208.01L403 207.6L403 207.2L403 206.8L403.01 206.39L403.04 205.99L403.07 205.59L403.12 205.18L403.17 204.78L403.24 204.38L403.31 203.98L403.4 203.58L403.5 203.18L403.61 202.78L403.72 202.39L403.85 202L403.99 201.61L404.57 200.08L405.14 198.56L405.71 197.05L406.28 195.55L406.85 194.07L407.43 192.6L408 191.13L408.57 189.68L409.14 188.24L409.71 186.81L410.28 185.39L410.85 183.99L411.42 182.59L411.99 181.2L412.57 179.83L413.14 178.47L413.71 177.11L414.28 175.77L414.85 174.44L415.42 173.12L415.99 171.81L416.57 170.51L417.14 169.22L417.71 167.94L418.28 166.67L418.86 165.41L419.43 164.16L420 162.93L420.58 161.7L421.15 160.48L421.73 159.27L422.3 158.08L422.88 156.89L423.45 155.71L424.03 154.54L424.61 153.39L425.18 152.24L425.76 151.1L426.34 149.97L426.92 148.86L421.48 147.87L416.09 147.28L410.73 147.06L405.42 147.2L400.13 147.68Z" id="hWoGBMm"></path><linearGradient id="gradientb61rxWhFS" gradientUnits="userSpaceOnUse" x1="99.12" y1="79.1" x2="527.44" y2="557.92"><stop style="stop-color: #9ed362;stop-opacity: 1" offset="0%"></stop><stop style="stop-color: #148f31;stop-opacity: 1" offset="100%"></stop></linearGradient></defs><g><g><use xlink:href="#hWoGBMm" opacity="1" fill="url(#gradientb61rxWhFS)"></use><g><use xlink:href="#hWoGBMm" opacity="1" fill-opacity="0" stroke="#000000" stroke-width="1" stroke-opacity="0"></use></g></g></g></svg>