<?xml version="1.0"?>
<svg xmlns="http://www.w3.org/2000/svg" xmlns:xlink="http://www.w3.org/1999/xlink" version="1.1" id="Capa_1" x="0px" y="0px" viewBox="0 0 512 512" style="enable-background:new 0 0 512 512;" xml:space="preserve" width="512px" height="512px" class=""><g><path style="fill:#E3E9ED" d="M286.124,91.039h-60.25c-5.221,0-10.077-2.673-12.871-7.082l-38.376-60.563  c-2.974-4.693-3.157-10.634-0.479-15.502S181.942,0,187.499,0H324.5c5.557,0,10.672,3.024,13.351,7.892  c2.679,4.868,2.495,10.809-0.479,15.502l-38.376,60.563C296.202,88.367,291.345,91.039,286.124,91.039z" data-original="#8FD85E" class="" data-old_color="#8FD85E"/><path style="fill:#FFFFFF" d="M324.5,0h-68.503v91.039h30.129c5.221,0,10.077-2.673,12.871-7.082l38.376-60.563  c2.974-4.693,3.157-10.634,0.479-15.502S330.057,0,324.5,0z" data-original="#57A25E" class="" data-old_color="#57A25E"/><path style="fill:#FFFFFF" d="M379.959,512H132.04c-19.588,0-38.227-8.449-51.138-23.18  c-12.911-14.731-18.842-34.317-16.274-53.736l34.65-261.958c4.062-30.711,19.13-58.87,42.428-79.289s53.189-31.664,84.169-31.664  h60.25c30.979,0,60.871,11.245,84.169,31.664s38.365,48.578,42.428,79.29l34.65,261.958c2.568,19.418-3.364,39.004-16.274,53.736  C418.188,503.552,399.547,512,379.959,512z" data-original="#C0EC88" class="" data-old_color="#C0EC88"/><path style="fill:#E3E9ED" d="M412.72,173.126c-4.062-30.712-19.13-58.871-42.428-79.29s-53.189-31.664-84.169-31.664h-30.129V512  h123.963c19.588,0,38.227-8.449,51.138-23.18c12.911-14.731,18.842-34.317,16.274-53.736L412.72,173.126z" data-original="#8FD85E" class="" data-old_color="#8FD85E"/><g>
	<path style="fill:#148F31" d="M257.253,320.13c-5.95-5.951-15.599-5.951-21.55,0c-3.111,3.111-4.579,7.229-4.438,11.304h-27.093   c-3.83,0-5.727-2.57-6.365-3.674c-0.638-1.105-1.915-4.033,0-7.35c4.208-7.288,1.711-16.607-5.577-20.815   c-7.289-4.211-16.609-1.712-20.815,5.577c-6.837,11.843-6.837,25.983,0,37.826c6.837,11.842,19.083,18.913,32.758,18.913h27.093   c-0.141,4.075,1.328,8.194,4.438,11.305c2.975,2.975,6.875,4.463,10.774,4.463c3.899,0,7.8-1.488,10.775-4.464l15.767-15.767   c5.95-5.951,5.95-15.599,0-21.55L257.253,320.13z" data-original="#1A6CA7" class="" data-old_color="#1A6CA7"/>
	<path style="fill:#148F31" d="M192.793,278.341c1.789,6.853,7.966,11.393,14.733,11.393c1.274,0,2.569-0.16,3.858-0.498   l23.89-6.235c8.143-2.125,13.021-10.449,10.896-18.592c-1.349-5.17-5.2-9.016-9.915-10.597l13.375-23.165   c1.915-3.317,5.09-3.675,6.365-3.675c1.276,0,4.449,0.359,6.365,3.675c4.208,7.289,13.527,9.785,20.815,5.577   c7.288-4.208,9.785-13.527,5.577-20.815c-6.837-11.843-19.083-18.914-32.758-18.914s-25.921,7.07-32.758,18.914l-13.14,22.76   c-3.542-2.503-8.12-3.491-12.645-2.309c-8.143,2.125-13.021,10.449-10.896,18.593L192.793,278.341z" data-original="#1A6CA7" class="" data-old_color="#1A6CA7"/>
</g><g>
	<path style="fill:#148F31" d="M340.578,305.171l-12.886-22.319c5.252-1.294,9.648-5.352,11.11-10.953   c2.125-8.143-2.753-16.467-10.896-18.593l-26.952-7.035c-8.142-2.127-16.466,2.752-18.592,10.896l-7.035,26.952   c-2.125,8.143,2.753,16.466,10.896,18.593c1.29,0.337,2.584,0.498,3.858,0.498c4.337,0,8.426-1.873,11.278-5.016l12.826,22.215   c1.915,3.317,0.638,6.245,0,7.349c-0.638,1.105-2.536,3.675-6.365,3.675c-8.415,0-15.238,6.823-15.238,15.238   c0,8.415,6.823,15.238,15.238,15.238c13.675,0,25.921-7.07,32.759-18.913C347.416,331.154,347.416,317.014,340.578,305.171z" data-original="#183756" class="active-path" data-old_color="#183756"/>
	<path style="fill:#148F31" d="M257.253,320.13c-0.402-0.402-0.823-0.772-1.257-1.119v55.322c0.434-0.347,0.855-0.717,1.258-1.119   l15.767-15.767c5.95-5.951,5.95-15.599,0-21.55L257.253,320.13z" data-original="#183756" class="active-path" data-old_color="#183756"/>
	<path style="fill:#148F31" d="M255.996,196.495v30.476c1.276,0,4.449,0.359,6.364,3.675c4.208,7.289,13.527,9.785,20.815,5.577   c7.288-4.208,9.785-13.527,5.577-20.815C281.916,203.566,269.671,196.495,255.996,196.495z" data-original="#183756" class="active-path" data-old_color="#183756"/>
</g></g> </svg>
