<?xml version="1.0" encoding="iso-8859-1"?>
<!-- Generator: Adobe Illustrator 19.0.0, SVG Export Plug-In . SVG Version: 6.00 Build 0)  -->
<svg xmlns="http://www.w3.org/2000/svg" version="1.1" id="Layer_1" x="0px"
     y="0px" viewBox="0 0 512 512" style="enable-background:new 0 0 512 512;" xml:space="preserve" width="512"
     height="512">
<g>
	<path d="M61,347v53.072C43.084,410.463,31,429.841,31,452c0,33.084,26.916,60,60,60h330c33.084,0,60-26.916,60-60   c0-22.159-12.084-41.537-30-51.928V347c0-84.845-53.918-157.261-129.119-184.477C327.79,154.551,331,144.974,331,135   c0-13.411-5.904-25.463-15.242-33.715C343.077,82.308,361,50.71,361,15V0h-15c-38.151,0-71.612,20.455-90,50.971   C237.612,20.455,204.151,0,166,0h-15v15c0,35.71,17.923,67.308,45.242,86.285C186.904,109.537,181,121.589,181,135   c0,9.974,3.21,19.551,9.119,27.523C114.918,189.739,61,262.155,61,347z M329.074,31.926c-6.435,27.791-28.357,49.714-56.148,56.148   C279.36,60.283,301.283,38.36,329.074,31.926z M239.074,88.074c-27.791-6.434-49.714-28.357-56.148-56.148   C210.717,38.36,232.64,60.283,239.074,88.074z M226,151c-7.99,0-15-7.477-15-16c0-8.271,6.729-15,15-15c27.211,0,42.532,0,60,0   c8.271,0,15,6.729,15,15c0,8.523-7.01,16-15,16H226z M256,181c90.981,0,165,74.467,165,166c0,18.033,0,60.693,0,75   c16.542,0,30,13.458,30,30s-13.458,30-30,30H91c-16.542,0-30-13.458-30-30s13.458-30,30-30c0-16.226,0-57.472,0-75   C91,255.467,165.019,181,256,181z"/>
    <path d="M192.056,422h42.731l-4.394,4.394l21.213,21.213L292.213,407l-40.606-40.606l-21.213,21.213l4.394,4.394h-42.731   c-8.11,0-11.95-5.541-13.226-7.922c-1.274-2.382-3.754-8.65,0.744-15.398l-24.961-16.641c-9.224,13.834-10.079,31.535-2.233,46.195   S175.429,422,192.056,422z"/>
    <path d="M345.018,286.304l-56.041-11.334l-18.501,52.002l28.264,10.056l4.379-12.308l29.307,43.959   c4.512,6.769,2.031,13.046,0.755,15.43C331.911,386.482,328.085,392,320,392v30c16.61,0,31.796-9.095,39.631-23.735   c7.849-14.665,6.988-32.378-2.244-46.227l-25.14-37.71l6.824,1.38L345.018,286.304z"/>
    <path d="M231.482,343.347l-2.453-29.899l-13.365,1.096l27.854-41.781c2.83-4.245,7.38-6.68,12.481-6.68s9.651,2.435,12.481,6.68   l24.961-16.642c-8.365-12.547-22.362-20.038-37.442-20.038s-29.077,7.491-37.442,20.039l-23.273,34.909l-0.955-6.284l-29.66,4.507   l8.941,58.841L231.482,343.347z"/>
</g>















</svg>
