<svg id="Capa_1" enable-background="new 0 0 512 512" height="512" viewBox="0 0 512 512" width="512" xmlns="http://www.w3.org/2000/svg"><circle cx="256" cy="256" fill="#966857" r="256"/><path d="m504.404 318.08-158.068-158.067-2.254 12.885-66.945-66.945-39.595 13.125 30.011 29.955-202.25 179.5 183.357 183.357c2.439.069 4.885.112 7.341.112 119.973-.002 220.655-82.538 248.403-193.922z" fill="#704639"/><ellipse cx="255" cy="309.169" fill="#f2bb88" rx="200.476" ry="59.723"/><path d="m255 249.446c-.135 0-.27.001-.405.002v119.443c.135 0 .269.002.405.002 110.72 0 200.476-26.739 200.476-59.723 0-32.985-89.756-59.724-200.476-59.724z" fill="#d6995c"/><path d="m382.84 298.516h-255.68v-49.07c0-70.604 57.236-127.84 127.84-127.84 70.604 0 127.84 57.236 127.84 127.84z" fill="#f2bb88"/><path d="m382.84 249.446c0-70.604-57.236-127.84-127.84-127.84-.135 0-.269.005-.405.005v176.905h128.245z" fill="#d6995c"/><path d="m301.245 298.516h-92.49v-130.664c0-25.54 20.705-46.245 46.245-46.245 25.54 0 46.245 20.705 46.245 46.245z" fill="#f2d1a5"/><path d="m301.245 167.852c0-25.54-20.705-46.245-46.245-46.245-.136 0-.269.009-.405.01v176.899h46.65z" fill="#e3a76f"/><path d="m382.84 249.446v49.07c-84.188 18.818-171.492 18.818-255.68 0 0-16.357 0-32.713 0-49.07z" fill="#d6995c"/><path d="m254.595 249.446v63.181c43.008.03 86.018-4.672 128.245-14.111 0-16.357 0-32.713 0-49.07-42.748 0-85.497 0-128.245 0z" fill="#b27a49"/><path d="m269.879 121.607h-26.315c-4.663 0-8.443-3.78-8.443-8.443v-2.915c0-4.663 3.78-8.443 8.443-8.443h26.315c4.663 0 8.443 3.78 8.443 8.443v2.915c0 4.663-3.78 8.443-8.443 8.443z" fill="#d6995c"/><path d="m269.879 101.806h-15.284v19.8h15.284c4.663 0 8.443-3.78 8.443-8.443v-2.915c0-4.662-3.78-8.442-8.443-8.442z" fill="#b27a49"/></svg>