<?xml version="1.0"?>
<svg xmlns="http://www.w3.org/2000/svg" xmlns:xlink="http://www.w3.org/1999/xlink" version="1.1" id="Capa_1" x="0px" y="0px" viewBox="0 0 512 512" style="enable-background:new 0 0 512 512;" xml:space="preserve" width="512px" height="512px" class=""><g><g>
	<g>
		<ellipse style="fill:#FFFFFF" cx="256" cy="256" rx="248.5" ry="248.611" data-original="#C3DDFF" class="" data-old_color="#C3DDFF"/>
		<circle style="fill:#FFFFFF" cx="256" cy="256" r="204.282" data-original="#FFF5CC" class="" data-old_color="#FFF5CC"/>
		<path style="fill:#FFFFFF" d="M256,51.718c-10.193,0-20.208,0.757-30,2.198C324.598,68.429,400.282,153.371,400.282,256    S324.598,443.571,226,458.084c9.792,1.441,19.807,2.198,30,2.198c112.822,0,204.282-91.46,204.282-204.282    S368.822,51.718,256,51.718z" data-original="#FCE99A" class="" data-old_color="#FCE99A"/>
		<path style="fill:#FFFFFF" d="M327,313l37.926-37.926c3.906-3.906,10.24-3.905,14.145,0.003l63.715,63.77    C416.984,398.694,351.234,460.495,256,460.495c-93.016,0-159.433-59.219-186.425-120.989l43.558-43.557    c3.905-3.905,10.237-3.905,14.142,0l36.148,36.148" data-original="#966A5B" class="active-path" data-old_color="#966A5B"/>
		<path style="fill:#9ED362" d="M103.415,392.07L248.665,247.95c3.915-3.884,10.239-3.852,14.115,0.071l144.115,145.907    c0,0-52.416,66.568-150.895,66.568C157.667,460.495,103.415,392.07,103.415,392.07z" data-original="#E2A975" class="" data-old_color="#E2A975"/>
		<path style="fill:#9ED362" d="M248.484,248.096l-12.974,12.813l117.785,119.249c7.894,7.992,7.576,20.985-0.774,28.5    c-19.572,17.615-58.879,45.417-116.361,50.879c6.402,0.617,13.012,0.959,19.841,0.959c98.479,0,150.895-66.568,150.895-66.568    L262.943,248.186C258.975,244.169,252.502,244.128,248.484,248.096z" data-original="#C38C66" class="" data-old_color="#C38C66"/>
		<path style="fill:#9ED362" d="M256.019,203.555h61.113c3.859,0,6.263-4.186,4.319-7.519l-9.232-15.825    c-0.908-1.557-0.908-3.482,0-5.039l9.233-15.829c1.944-3.333-0.46-7.519-4.319-7.519h-61.114" data-original="#FF8086" class="" data-old_color="#FF8086"/>
		<path style="fill:#FFFFFF;" d="M327,313l-26.831,26.041c-3.961,3.844-10.287,3.753-14.134-0.205l-11.142-11.459    c-3.888-3.999-10.297-4.044-14.241-0.1l-22.808,22.808c-3.848,3.848-10.067,3.913-13.994,0.145L184,312l64.645-64.042    c3.927-3.89,10.265-3.857,14.15,0.075L327,313z" data-original="#FFFFFF" class=""/>
		<g>
			<path style="fill:#FFFFFF" d="M262.796,248.033c-3.885-3.932-10.224-3.965-14.151-0.075l-13.099,12.977l39.816,40.289     c6.41,6.486,6.301,16.955-0.243,23.307c-0.599,0.349-1.173,1.139-1.673,1.623c4.393,4.254,8.581,8.561,12.588,12.682     c3.848,3.957,10.174,4.049,14.134,0.205L327,313L262.796,248.033z" data-original="#F0EEF0" class="" data-old_color="#F0EEF0"/>
		</g>
	</g>
</g><g>
	<path d="M256,0C190.209,0,127.646,25.006,79.835,70.412c-7.014,6.661,3.316,17.538,10.329,10.877C135.176,38.542,194.071,15,256,15   c132.888,0,241,108.112,241,241S388.888,497,256,497S15,388.888,15,256c0-52.978,16.934-103.278,48.97-145.464   c5.85-7.703-6.094-16.774-11.945-9.072C17.99,146.281,0,199.719,0,256c0,141.159,114.841,256,256,256   c141.159,0,256-114.841,256-256S397.159,0,256,0z" data-original="#000000" class="" style="fill:#148F31" data-old_color="#000000"/>
	<path d="M274.308,451.938c-9.631,0.892-8.248,15.855,1.385,14.936c52.261-4.842,100.698-28.944,136.389-67.868   c35.549-38.767,55.701-90.402,55.701-143.005c0-116.776-95.005-211.781-211.782-211.781S44.218,139.224,44.218,256   c0,53.228,19.899,104.143,56.033,143.367c35.917,38.988,84.604,62.996,137.094,67.6c9.638,0.845,10.944-14.098,1.311-14.943   c-47.6-4.174-91.836-25.544-124.967-60.268l70.273-69.399l41.764,40.067c2.906,2.788,7.645,2.741,10.496-0.108l31.526-31.527   l19.875,20.44c2.884,2.967,7.629,3.036,10.601,0.153l28.645-27.802l69.409,70.271C363.623,427.091,320.579,447.65,274.308,451.938z    M406.396,382.75l-68.841-69.697l34.443-34.443l61.736,61.79C426.535,355.512,417.375,369.747,406.396,382.75z M256,59.219   c108.506,0,196.782,88.275,196.782,196.781c0,24.008-4.374,47.515-12.707,69.523l-62.77-62.824   c-2.896-2.9-7.712-2.899-10.609-0.003l-39.683,39.683l-63.755-64.548v-26.777h62.579c5.667,0,9.342-6.369,6.479-11.279   l-12.884-22.084l12.884-22.089c2.863-4.909-0.811-11.278-6.479-11.278h-62.579V137c0-9.673-15-9.673-15,0v100.778l-84.802,83.747   l-37.949-37.95c-2.928-2.928-7.677-2.928-10.606,0l-42.697,42.696C63.688,304.052,59.218,280.286,59.218,256   C59.218,147.494,147.494,59.219,256,59.219z M304.271,181.471l8.508,14.584h-49.521v-36.73h49.521l-8.509,14.589   C302.908,176.248,302.908,179.136,304.271,181.471z M78.597,341.092l41.607-41.606l32.579,32.58l-49.046,48.436   C93.748,368.312,85.33,355.082,78.597,341.092z M293.153,335.399L273.2,314.878c-1.399-1.439-3.317-2.257-5.324-2.271   c-0.018,0-0.035,0-0.053,0c-1.988,0-3.896,0.79-5.304,2.196l-31.71,31.711l-36.171-34.701l61.054-60.294l60.635,61.388   L293.153,335.399z" data-original="#000000" class="" style="fill:#148F31" data-old_color="#000000"/>
	<path d="M93.128,242.949c3.978,0.488,7.869-2.542,8.359-6.529c3.776-30.709,16.749-59.221,37.516-82.454   c20.617-23.065,47.337-39.213,77.272-46.695c9.386-2.347,5.747-16.9-3.638-14.553c-32.861,8.215-62.19,25.938-84.818,51.252   c-22.815,25.524-37.069,56.86-41.22,90.62C86.094,238.701,89.017,242.443,93.128,242.949z" data-original="#000000" class="" style="fill:#148F31" data-old_color="#000000"/>
</g></g> </svg>
