<svg height="512" viewBox="0 0 60 60" width="512" xmlns="http://www.w3.org/2000/svg"><g id="Page-1" fill="none" fill-rule="evenodd"><g id="018---Bush" fill-rule="nonzero"><g id="Icons" transform="translate(1 1)"><path id="Shape" d="m2 54h54c1.1045695 0 2 .8954305 2 2v2h-58v-2c0-1.1045695.8954305-2 2-2z" fill="#a0522d"/><path id="Shape" d="m56 54h-3c1.1045695 0 2 .8954305 2 2v2h3v-2c0-1.1045695-.8954305-2-2-2z" fill="#783e22"/><path id="Shape" d="m6 50h46c1.1045695 0 2 .8954305 2 2v2h-50v-2c0-1.1045695.8954305-2 2-2z" fill="#91562d"/><path id="Shape" d="m52 50h-3c1.1045695 0 2 .8954305 2 2v2h3v-2c0-1.1045695-.8954305-2-2-2z" fill="#6d4122"/><path id="Shape" d="m46 50c2.9792549-.0025744 5.8022151-1.3333985 7.7-3.63 2.09-2.52 4.3-6.17 4.3-10.37 0-8-6-5-6-5s2-9 0-12c-.771836-1.1821104-2.0882225-1.8947429-3.5-1.8947429s-2.728164.7126325-3.5 1.8947429c0 0 2.54-7.46-1-11-3-3-8 1-8 1s0-9-7-9-7 9-7 9-5-4-8-1c-3.54 3.54-1 11-1 11-.771836-1.1821104-2.0882225-1.8947429-3.5-1.8947429s-2.72816398.7126325-3.5 1.8947429c-2 3 0 12 0 12s-6-3-6 5c0 4.2 2.21 7.85 4.31 10.37 1.89555309 2.2939089 4.71424651 3.6244495 7.69 3.63z" fill="#a4c400"/><path id="Shape" d="m41 8c3.54 3.54 1 11 1 11 .7467087-1.2034177 2.0741092-1.9222678 3.49-1.89.51-2.45.93-6.69-1.49-9.11-1.1734921-1.09588094-2.8662726-1.43288758-4.37-.87.5161684.18351517.984408.4808644 1.37.87z" fill="#90ac00"/><path id="Shape" d="m49 19c2 3 0 12 0 12 .9656756-.4547746 2.0420085-.6214325 3.1-.48.37-1.88 1.63-8.93-.1-11.52-1.0687712-1.6610743-3.1601845-2.3386922-5-1.62.8218535.3137918 1.5223851.8812224 2 1.62z" fill="#90ac00"/><path id="Shape" d="m52.73 30.72c1.27.52 2.27 1.94 2.27 5.28 0 4.2-2.21 7.85-4.31 10.37-1.8955531 2.2939089-4.7142465 3.6244495-7.69 3.63h3c2.9792549-.0025744 5.8022151-1.3333985 7.7-3.63 2.09-2.52 4.3-6.17 4.3-10.37 0-6.25-3.66-5.79-5.27-5.28z" fill="#90ac00"/><g fill="#9d27b0"><circle id="Oval" cx="36" cy="23" r="2"/><circle id="Oval" cx="23" cy="16" r="2"/><circle id="Oval" cx="20" cy="29" r="3"/><circle id="Oval" cx="32" cy="38" r="4"/><circle id="Oval" cx="13" cy="40" r="2"/><circle id="Oval" cx="46" cy="42" r="2"/></g></g><g id="Icons_copy" fill="#000"><path id="Shape" d="m1 60h58c.5522847 0 1-.4477153 1-1v-2c0-1.6568542-1.3431458-3-3-3h-1v-1c.005439-1.5639387-1.1914909-2.8696804-2.75-3 .825883-.5609125 1.5696842-1.2340358 2.21-2 2.07-2.47 4.54-6.4 4.54-11 0-3-.79-5-2.36-5.94-1.0122634-.5763052-2.2018768-.7579528-3.34-.51.51-2.89 1.21-8.58-.47-11.1-.9999289-1.5714834-2.7823744-2.4665477-4.64-2.33-.5328074.0301389-1.0583552.1379436-1.56.32.45-2.7.54-6.68-1.92-9.15s-5.9-1.17-7.84-.06c-.49-3.54-2.51-8.23-7.87-8.23s-7.38 4.69-7.87 8.23c-1.94-1.11-5.35-2.43-7.84.06s-2.37 6.45-1.92 9.15c-.5013679-.183035-1.0270619-.2908697-1.56-.32-1.85673845-.1320933-3.63702825.7618884-4.64 2.33-1.68 2.52-1 8.21-.47 11.1-1.13812317-.2479528-2.32773659-.0663052-3.34.51-1.57.94-2.36 2.94-2.36 5.94 0 4.6 2.47 8.53 4.54 11 .64031581.7659642 1.38411701 1.4390875 2.21 2-1.55850912.1303196-2.75543905 1.4360613-2.75 3v1h-1c-1.65685425 0-3 1.3431458-3 3v2c0 .2652165.10535684.5195704.29289322.7071068s.44189029.2928932.70710678.2928932zm1-23c0-1.53.24-3.51 1.41-4.24.37324206-.2155873.79916331-.3229333 1.23-.31.65893084.0232902 1.30729215.1726509 1.91.44.3457941.1774312.76307175.1384333 1.07-.1.30186708-.2366952.44173211-.6252091.36-1-.74-3.32-1.43-9.3-.15-11.23.61244893-.9733168 1.71336979-1.5276266 2.86-1.44.976751.0259193 1.8796847.5258909 2.42 1.34.2153911.5219091.8130909.7703911 1.335.555s.7703911-.8130909.555-1.335c0-.07-2.29-6.92.76-10 2.33-2.33 6.62 1 6.67 1.07.2985508.2367845.7057231.2833185 1.05.12.3183462-.1741716.5173572-.5071322.52-.87 0-.33.09-8 6-8s6 7.67 6 8c.0010889.3846594.2227162.7345973.57.9.3469474.1675392.7592864.1208593 1.06-.12 0 0 4.37-3.41 6.66-1.07 3.05 3 .79 9.9.76 10-.1662507.4967595.0790292 1.0376283.5622633 1.2398513.4832341.2022229 1.0406299-.0027435 1.2777367-.4698513.5403153-.8141091 1.443249-1.3140807 2.42-1.34 1.1461808-.0853581 2.2459963.4683952 2.86 1.44 1.28 1.93.59 7.91-.15 11.23-.0869589.3769958.0513516.7703281.3551283 1.0099266.3037766.2395985.7185082.2824684 1.0648717.1100734 0 0 1.9-.92 3.15-.14s1.41 2.68 1.41 4.21c0 4-2.21 7.5-4.07 9.73-1.7074271 2.0680619-4.2481764 3.2669436-6.93 3.27h-34c-2.6853244-.0000752-5.23034346-1.1992413-6.94-3.27-1.85-2.23-4.06-5.73-4.06-9.73zm4 16c0-.5522847.44771525-1 1-1h46c.5522847 0 1 .4477153 1 1v1h-48zm-4 4c0-.5522847.44771525-1 1-1h54c.5522847 0 1 .4477153 1 1v1h-56z"/><path id="Shape" d="m37 27c1.6568542 0 3-1.3431458 3-3s-1.3431458-3-3-3-3 1.3431458-3 3 1.3431458 3 3 3zm0-4c.5522847 0 1 .4477153 1 1s-.4477153 1-1 1-1-.4477153-1-1 .4477153-1 1-1z"/><path id="Shape" d="m24 20c1.6568542 0 3-1.3431458 3-3s-1.3431458-3-3-3-3 1.3431458-3 3 1.3431458 3 3 3zm0-4c.5522847 0 1 .4477153 1 1s-.4477153 1-1 1-1-.4477153-1-1 .4477153-1 1-1z"/><path id="Shape" d="m21 34c2.209139 0 4-1.790861 4-4s-1.790861-4-4-4-4 1.790861-4 4 1.790861 4 4 4zm0-6c1.1045695 0 2 .8954305 2 2s-.8954305 2-2 2-2-.8954305-2-2 .8954305-2 2-2z"/><path id="Shape" d="m33 44c2.7614237 0 5-2.2385763 5-5s-2.2385763-5-5-5-5 2.2385763-5 5 2.2385763 5 5 5zm0-8c1.6568542 0 3 1.3431458 3 3s-1.3431458 3-3 3-3-1.3431458-3-3 1.3431458-3 3-3z"/><path id="Shape" d="m14 44c1.6568542 0 3-1.3431458 3-3s-1.3431458-3-3-3-3 1.3431458-3 3 1.3431458 3 3 3zm0-4c.5522847 0 1 .4477153 1 1s-.4477153 1-1 1-1-.4477153-1-1 .4477153-1 1-1z"/><path id="Shape" d="m47 46c1.6568542 0 3-1.3431458 3-3s-1.3431458-3-3-3-3 1.3431458-3 3 1.3431458 3 3 3zm0-4c.5522847 0 1 .4477153 1 1s-.4477153 1-1 1-1-.4477153-1-1 .4477153-1 1-1z"/></g></g></g></svg>