<svg height="512" viewBox="0 0 60 60" width="512" xmlns="http://www.w3.org/2000/svg"><g id="Page-1" fill="none" fill-rule="evenodd"><g id="028---Plant" fill-rule="nonzero"><g id="Icons" transform="translate(1 1)"><path id="Shape" d="m2 54h54c1.1045695 0 2 .8954305 2 2v2h-58v-2c0-1.1045695.8954305-2 2-2z" fill="#a0522d"/><path id="Shape" d="m56 54h-3c1.1045695 0 2 .8954305 2 2v2h3v-2c0-1.1045695-.8954305-2-2-2z" fill="#783e22"/><path id="Shape" d="m6 50h46c1.1045695 0 2 .8954305 2 2v2h-50v-2c0-1.1045695.8954305-2 2-2z" fill="#91562d"/><path id="Shape" d="m52 50h-3c1.1045695 0 2 .8954305 2 2v2h3v-2c0-1.1045695-.8954305-2-2-2z" fill="#6d4122"/><path id="Shape" d="m31 0-3.41 3.41c-.3780394.37579638-.5904224.88695542-.59 1.42l-.0000006 45.17h4.0000006z" fill="#60a917"/><g fill="#a4c400"><path id="Shape" d="m7.49 26s7.28-.94 12.66 2.92 6.85 11.08 6.85 11.08-7.28.93-12.67-2.93-6.84-11.07-6.84-11.07z"/><path id="Shape" d="m12.87 2.07s5.27-.68 9.13 2.12 5 8 5 8-5.27.68-9.17-2.12-4.96-8-4.96-8z"/><path id="Shape" d="m50.51 31.93s-7.28-.93-12.66 2.92-6.85 11.05-6.85 11.05 7.28.94 12.67-2.92 6.84-11.05 6.84-11.05z"/></g><path id="Shape" d="m47 31.88h.53s-1.45 7.19-6.84 11c-2.7140398 1.81898-5.8759238 2.8567975-9.14 3 1.76.13 7.61.27 12.14-3 5.39-3.86 6.84-11 6.84-11-1.1743174-.1051523-2.3556826-.1051523-3.53 0z" fill="#90ac00"/><path id="Shape" d="m45.13 14.81s-5.27-.68-9.17 2.12-5 8-5 8 5.27.68 9.17-2.12 5-8 5-8z" fill="#a4c400"/><path id="Shape" d="m42.13 14.81s-1.06 5.21-5 8c-1.8243575 1.2274155-3.9371439 1.9581018-6.13 2.12 0 0 5.27.68 9.17-2.12s5-8 5-8c-1.010804-.1012532-2.029196-.1012532-3.04 0z" fill="#90ac00"/></g><g id="Icons_copy" fill="#000"><path id="Shape" d="m1 60h58c.5522847 0 1-.4477153 1-1v-2c0-1.6568542-1.3431458-3-3-3h-1v-1c0-1.6568542-1.3431458-3-3-3h-20v-2h1c3.9725662.0912667 7.8788793-1.0283105 11.2-3.21 5.64-4 7.18-11.36 7.24-11.66.0550347-.2717371-.0052169-.5541265-.1663676-.7797375s-.4087347-.3741914-.6836324-.4102625c-.31-.05-7.73-1-13.38 3.1-2.2056989 1.6675081-3.9900458 3.8285886-5.21 6.31v-14.35h.47c2.93617.0655612 5.8232003-.7607989 8.28-2.37 4.18-3 5.31-8.39 5.36-8.62.0540708-.2723259-.0075101-.5548732-.17-.78-.1603678-.2246576-.4064626-.3730383-.68-.41-.24 0-5.71-.7-9.89 2.29-1.3671365 1.0072947-2.5139432 2.283415-3.37 3.75v-19.86c-.0020151-.40370189-.2465745-.7665964-.62-.92-.3723971-.15659673-.8024393-.07374456-1.09.21l-3.41 3.42c-.5627699.56206943-.8792998 1.3246186-.88 2.12v2.29c-.8564723-1.46348101-2.0033239-2.73624807-3.37-3.74-4.18-3-9.66-2.33-9.89-2.3-.2735374.03696173-.5196322.18534243-.68.41-.1624899.22512675-.2240708.50767412-.17.78 0 .23 1.18 5.63 5.36 8.62 2.4552047 1.6126821 5.3433415 2.4393589 8.28 2.37h.47v21.16c-1.2395316-2.4832662-3.0404456-4.6436783-5.26-6.31-5.65-4.04-13.07-3.11-13.38-3.11-.27716123.0343198-.52734275.1829784-.69.41-.15900814.2266414-.21694047.5090615-.16.78.06.31 1.6 7.63 7.24 11.67 3.3359754 2.1909158 7.260013 3.3140626 11.25 3.22h1.05v7.92h-20.05c-1.65685425 0-3 1.3431458-3 3v1h-1c-1.65685425 0-3 1.3431458-3 3v2c0 .2652165.10535684.5195704.29289322.7071068s.44189029.2928932.70710678.2928932zm38.43-23.34c3.77-2.7 8.62-2.9 10.81-2.82-.63 2.09-2.37 6.62-6.15 9.33-2.9094988 1.8873406-6.3122232 2.8719735-9.78 2.83 2.7421817-2.4562174 5.8196406-4.5101013 9.14-6.1.3460386-.1440974.5824323-.4696151.6123817-.8432591s-.1515756-.73266-.4702434-.9300368c-.3186678-.1973769-.7209575-.1999648-1.0421383-.0067041-2.9608631 1.4438923-5.7486358 3.2185394-8.31 5.29 1.1125087-2.6636638 2.9015755-4.9904848 5.19-6.75zm-1.89-17.92c2.1291354-1.3679435 4.620119-2.0647222 7.15-2h.14c-.7484696 2.4670915-2.2267119 4.6495908-4.24 6.26-1.743492 1.1539301-3.7624797 1.8234748-5.85 1.94 1.4634743-1.1724201 3.0414587-2.1942572 4.71-3.05.3460386-.1440974.5824323-.4696151.6123817-.8432591s-.1515756-.73266-.4702434-.9300368c-.3186678-.1973769-.7209575-.1999648-1.0421383-.0067041-1.5288235.7740476-2.9847208 1.6844018-4.35 2.72.7734002-1.6088058 1.9182112-3.0106851 3.34-4.09zm-22.37-14.74c2.5766016-.08811761 5.1190802.60940739 7.29 2 1.2963649.97309702 2.358918 2.22356151 3.11 3.66-1.298212-.96577309-2.6765568-1.81887487-4.12-2.55-.4835272-.20135037-1.0404963.00451411-1.2768341.47193782-.2363378.4674237-.0719586 1.03801484.3768341 1.30806218 1.7989655.92383255 3.4922343 2.040384 5.05 3.33-2.2081213-.0840274-4.3501653-.7761256-6.19-2-2.0066658-1.59977906-3.4843149-3.76746243-4.24-6.22zm-5.4 23.92c2.17-.08 7 .12 10.8 2.82 2.2511363 1.7243484 4.0183008 4.0013381 5.13 6.61-2.5468773-2.0476147-5.313943-3.8051206-8.25-5.24-.4835272-.2013504-1.0404963.0045141-1.2768341.4719378s-.0719586 1.0380149.3768341 1.3080622c3.3487419 1.6107095 6.4500969 3.6917491 9.21 6.18-3.4909686.0516448-6.9188343-.933214-9.85-2.83-3.76-2.7-5.51-7.24-6.14-9.32zm19.23-22.09c-.0015368-.26580298.1028135-.52128117.29-.71l1.71-1.71v46.59h-2.0000167zm-23 47.17c0-.5522847.44771525-1 1-1h46c.5522847 0 1 .4477153 1 1v1h-48zm-4 4c0-.5522847.44771525-1 1-1h54c.5522847 0 1 .4477153 1 1v1h-56z"/></g></g></g></svg>