<svg height="512" viewBox="0 0 54 60" width="512" xmlns="http://www.w3.org/2000/svg">
    <g id="Page-1" fill="none" fill-rule="evenodd">
        <g id="004---Tree" fill-rule="nonzero" transform="translate(-1 -1)">
            <path id="Shape"
                  d="m54 21c0 2.209139-1.790861 4-4 4-.15 0-.3-.03-.45-.04.2979493.6387163.4515875 1.3352094.45 2.04 0 2.7614237-2.2385763 5-5 5-.7047906.0015875-1.4012837-.1520507-2.04-.45.01.15.04.3.04.45 0 2.7614237-2.2385763 5-5 5-2.7070515-.1270521-4.8729479-2.2929485-5-5v-4.13c-.3268153.083792-.6626236.1274471-1 .13-2.209139 0-4-1.790861-4-4 0 2.209139-1.790861 4-4 4-.3373764-.0025529-.6731847-.046208-1-.13v4.13c-.1270521 2.7070515-2.2929485 4.8729479-5 5-2.7614237 0-5-2.2385763-5-5 0-.15.03-.3.04-.45-.6387163.2979493-1.3352094.4515875-2.04.45-2.76142375 0-5-2.2385763-5-5-.00158747-.7047906.1520507-1.4012837.45-2.04-.15.01-.3.04-.45.04-2.209139 0-4-1.790861-4-4s1.790861-4 4-4c.72828572.0004668 1.44189086.2048489 2.06.59-.03481996-.1948764-.05487696-.3921036-.06-.59 0-2.209139 1.790861-4 4-4 .2927194.0024892.5843497.0360099.87.1-.5706868-.9331746-.8718138-2.0061559-.87-3.1.0004196-2.65650687 1.7476448-4.99650208 4.2945821-5.75157778s5.287202.25453946 6.7354179 2.48157778c.130254-2.65000962 2.3167912-4.73171328 4.97-4.73171328s4.839746 2.08170366 4.97 4.73171328c1.4482159-2.22703832 4.1884806-3.23665348 6.7354179-2.48157778s4.2941625 3.09507091 4.2945821 5.75157778c.0018138 1.0938441-.2993132 2.1668254-.87 3.1.2856503-.0639901.5772806-.0975108.87-.1 2.209139 0 4 1.790861 4 4-.005123.1978964-.02518.3951236-.06.59.6181091-.3851511 1.3317143-.5895332 2.06-.59 2.209139 0 4 1.790861 4 4z"
                  fill="#60a917"/>
            <path id="Shape"
                  d="m41 10c.0018138 1.0938441-.2993132 2.1668254-.87 3.1.2856503-.0639901.5772806-.0975108.87-.1 2.209139 0 4 1.790861 4 4-.005123.1978964-.02518.3951236-.06.59.6181091-.3851511 1.3317143-.5895332 2.06-.59.3331186.0040419.6643981.0500716.986.137 0-.046.014-.091.014-.137 0-2.209139-1.790861-4-4-4-.2927194.0024892-.5843497.0360099-.87.1.5706868-.9331746.8718138-2.0061559.87-3.1.0000489-1.85829423-.8609567-3.61173521-2.3314229-4.74795115-1.4704662-1.13621595-3.3844166-1.52695843-5.1825771-1.05804885 2.6534159.6782927 4.5107715 3.06726192 4.514 5.806z"
                  fill="#549414"/>
            <path id="Shape"
                  d="m42 32c-.7047906.0015875-1.4012837-.1520507-2.04-.45.01.15.04.3.04.45-.0057937 2.1599136-1.4019059 4.0703829-3.458 4.732.4678425.1693205.9605262.2598824 1.458.268 2.7614237 0 5-2.2385763 5-5 0-.033-.006-.067-.009-.1-.3261605.0663736-.6581546.0998746-.991.1z"
                  fill="#549414"/>
            <path id="Shape"
                  d="m50 17c-.5093265.0007643-1.0134232.1027393-1.483.3 1.7667216.7257241 2.7738869 2.5992433 2.404695 4.4731905-.369192 1.8739471-2.0117268 3.225441-3.921695 3.2268095-.15 0-.3-.03-.45-.04.2979493.6387163.4515875 1.3352094.45 2.04-.0058806 2.1858093-1.4350292 4.1128287-3.525 4.753.4916626.1641331 1.0066647.2475465 1.525.247 2.7614237 0 5-2.2385763 5-5 .0015875-.7047906-.1520507-1.4012837-.45-2.04.15.01.3.04.45.04 2.209139 0 4-1.790861 4-4s-1.790861-4-4-4z"
                  fill="#549414"/>
            <path id="Shape"
                  d="m39 60h-22c1-4 6-4 6-9v-23.13c.3268153.083792.6626236.1274471 1 .13 2.209139 0 4-1.790861 4-4 0 2.209139 1.790861 4 4 4 .3373764-.0025529.6731847-.046208 1-.13v23.13c0 5 5 5 6 9z"
                  fill="#a0522d"/>
            <path id="Shape"
                  d="m33 51v-23.13c-.3268153.083792-.6626236.1274471-1 .13-2.209139 0-4-1.790861-4-4-.0031828 1.2075301-.5550923 2.3481432-1.5 3.1.7049378.5787469 1.5879288.8966237 2.5.9.3373764-.0025529.6731847-.046208 1-.13v23.13c0 5 5 5 6 9h3c-1-4-6-4-6-9z"
                  fill="#783e22"/>
            <g fill="#000">
                <path id="Shape"
                      d="m5.1 25.919c-.06662545.3564747-.10010167.7183526-.1 1.081.00330738 3.3123376 2.68766243 5.9966926 6 6 .3583171-.000431.7158311-.0339061 1.068-.1.4484772 2.930585 2.9673002 5.0961274 5.932 5.1 1.494807-.0157962 2.9265595-.6046044 4-1.645v14.645c0 2.3-1.2 3.254-2.711 4.466-.34.272-.692.556-1.036.863.0378042-2.6263936-.411098-5.2370785-1.324-7.7-.2054499-.5130725-.7879275-.7624499-1.301-.557-.5130725.20545-.7624499.7879275-.557 1.301.7987914 2.1685229 1.196924 4.464139 1.175 6.775-1.2353649-1.6329271-3.0340103-2.7479019-5.046-3.128-.3556996-.0839647-.7288731.0328053-.9732685.3045463-.24439541.271741-.32107999.6551639-.2 1 .12108.3448361.4206363.5961521.7812685.6554537 2.1765954.4464464 3.983111 1.9568858 4.808 4.02h-5.616c-.55228475 0-1 .4477153-1 1s.44771525 1 1 1h36c.5522847 0 1-.4477153 1-1s-.4477153-1-1-1h-5.609c.8295887-2.0600961 2.6344502-3.5688387 4.809-4.02.5244774-.1238056.856525-.640941.7508396-1.1693679s-.611089-.8780721-1.1428396-.7906321c-2.0146828.3786729-3.8159093 1.4946347-5.052 3.13-.0214701-2.311976.377341-4.6086131 1.177-6.778.1329028-.3318997.0786437-.7094905-.1423385-.9905376-.2209823-.2810471-.575115-.4228527-.929-.372s-.6537587.2866379-.7866615.6185376c-.912902 2.4629215-1.3618042 5.0736064-1.324 7.7-.344-.307-.7-.591-1.036-.863-1.515-1.211-2.715-2.165-2.715-4.465v-14.645c1.0734405 1.0403956 2.505193 1.6292038 4 1.645 2.9646998-.0038726 5.4835228-2.169415 5.932-5.1.3521689.0660939.7096829.099569 1.068.1 3.3123376-.0033074 5.9966926-2.6876624 6-6 .0001017-.3626474-.0333745-.7245253-.1-1.081 2.54583-.463901 4.3170427-2.7936562 4.0832039-5.37082-.2338388-2.5771639-2.3954538-4.5500741-4.9832039-4.54818-.3623861.0000954-.723627.0406805-1.077.121-.3837702-2.1279928-2.0890202-3.7699511-4.23-4.073.9053643-2.96441268-.2465968-6.17126428-2.8313484-7.88196198-2.5847515-1.71069771-5.9867694-1.51786174-8.3616516.47396198-.9347808-2.20943835-3.1009517-3.64503116-5.5-3.64503116s-4.5652192 1.43559281-5.5 3.64503116c-2.3747149-1.99371336-5.7780631-2.18762144-8.3638614-.47653669s-3.7378201 4.91939039-2.8311386 7.88453669c-2.14097977.3030489-3.84622979 1.9450072-4.23 4.073-.35272085-.0801716-.71328268-.1207557-1.075-.121-2.58775013-.0018941-4.74936506 1.9710161-4.9832039 4.54818-.23383885 2.5771638 1.53737395 4.906919 4.0832039 5.37082zm30.362 31.109c.7685096.5494504 1.44723 1.2146773 2.012 1.972h-18.948c.56477-.7573227 1.2434904-1.4225496 2.012-1.972 1.623-1.299 3.462-2.77 3.462-6.028v-22c1.5737865 0 3.0557281-.7409708 4-2 .9442719 1.2590292 2.4262135 2 4 2v22c0 3.258 1.839 4.729 3.462 6.028zm-29.462-39.028c.54325034-.0001315 1.07556107.1526999 1.536.441.3326552.2006986.75144604.1905603 1.074-.026.32555817-.218946.49541652-.6061919.436-.994-.02623558-.1389269-.04161538-.2796856-.046-.421 0-1.6568542 1.3431458-3 3-3 .2224857.0023337.4440821.0284827.661.078.3910035.0836163.7942304-.0737193 1.0252749-.4000534.2310445-.326334.245488-.7589283.0367251-1.0999466-.4735792-.7764553-.7237579-1.6685169-.723-2.578.0005654-2.21377872 1.4568061-4.16364738 3.5793451-4.79265044s4.4060228.21261823 5.6126549 2.06865044c.2364253.36226311.6789788.53143371 1.0967662.41925006s.7160739-.48028352.7392338-.91225006c.1062199-2.11628266 1.8530533-3.77763852 3.972-3.77763852s3.8657801 1.66135586 3.972 3.77763852c.0231599.43196654.3214464.80006641.7392338.91225006s.8603409-.05698695 1.0967662-.41925006c1.516999-2.20634955 4.5028337-2.82605324 6.7725616-1.40563082 2.2697278 1.42042242 3.0176405 4.37674932 1.6964384 6.70563082-.2087629.3410183-.1943194.7736126.0367251 1.0999466.2310445.3263341.6342714.4836697 1.0252749.4000534.2169907-.0488443.4385862-.0743228.661-.076 1.6568542 0 3 1.3431458 3 3-.00494.1477124-.0213224.2948197-.049.44-.0577043.3847527.1129825.7680477.4375521.9825682.3245695.2145205.7440964.2213206 1.0754479.0174318.4605439-.2879485.9928473-.4404313 1.536-.44 1.6568542 0 3 1.3431458 3 3s-1.3431458 3-3 3c-.050953-.0014721-.1017421-.0064842-.152-.015-.077-.009-.154-.018-.23-.023-.3534339-.0242677-.6933281.1402737-.8935238.4325512s-.2308086.6686613-.0804762.9894488c.2362783.5058589.3578437 1.0576835.356 1.616 0 2.209139-1.790861 4-4 4-.5583165.0018437-1.1101411-.1197217-1.616-.356-.3207875-.1503324-.6971713-.1197195-.9894488.0804762s-.4568189.5400899-.4325512.8935238c0 .076.014.153.023.23.0085158.0502579.0135279.101047.015.152 0 2.209139-1.790861 4-4 4-2.1724394-.1242325-3.8995404-1.8703315-4-4.044v-3c.8569939.6702531 1.9120504 1.0374128 3 1.044 2.7600532-.0033061 4.9966939-2.2399468 5-5 0-.5522847-.4477153-1-1-1s-1 .4477153-1 1c.0071963 1.2726874-.7936056 2.4098668-1.9942764 2.8319742-1.2006708.4221073-2.5369185.036228-3.3277236-.9609742-.3037945-.3758207-.8328758-.4806268-1.257-.249-.4342013.2438402-.9230324.373874-1.421.378-1.6568542 0-3-1.3431458-3-3 0-.5522847-.4477153-1-1-1s-1 .4477153-1 1c0 1.6568542-1.3431458 3-3 3-.4979676-.004126-.9867987-.1341598-1.421-.378-.4241242-.2316268-.9532055-.1268207-1.257.249-.7908051.9972022-2.1270528 1.3830815-3.3277236.9609742-1.2006708-.4221074-2.0014727-1.5592868-1.9942764-2.8319742 0-.5522847-.4477153-1-1-1s-1 .4477153-1 1c.0033061 2.7600532 2.2399468 4.9966939 5 5 1.0878324-.0063014 2.1428769-.3731052 3-1.043v3c-.1009563 2.1732789-1.8279248 3.9188122-4 4.043-2.209139 0-4-1.790861-4-4 .0014721-.050953.0064842-.1017421.015-.152.009-.077.018-.154.023-.23.0242677-.3534339-.1402737-.6933281-.4325512-.8935238s-.6686613-.2308086-.9894488-.0804762c-.5058589.2362783-1.0576835.3578437-1.616.356-2.209139 0-4-1.790861-4-4-.00184367-.5583165.11972166-1.1101411.356-1.616.15033244-.3207875.11971949-.6971713-.08047619-.9894488-.20019569-.2922775-.54008991-.4568189-.89352381-.4325512-.076 0-.153.014-.23.023-.05025791.0085158-.10104698.0135279-.152.015-1.65685425 0-3-1.3431458-3-3s1.34314575-3 3-3z"/>
                <path id="Shape"
                      d="m20.168 15.99c.3240144.0000062.6279494-.1569764.8154889-.4212004.1875394-.264224.2354359-.6029362.1285111-.9087996-.3642318-1.0429897.1860103-2.1837682 1.229-2.548 1.0429897-.3642317 2.1837682.1860103 2.548 1.229.1132179.3431564.4027581.5985402.7573663.6680215.3546082.0694812.7191172-.0577494.9534662-.3328042s.30208-.6551429.1771675-.9942173c-.4558185-1.3690343-1.6136406-2.386464-3.0299105-2.6625168-1.4162698-.27605278-2.8714444.2320636-3.8080535 1.3296924-.936609 1.0976288-1.2094642 2.614621-.714036 3.9698244.1398183.4013223.5180195.6704347.943.671z"/>
                <path id="Shape"
                      d="m33.567 16.244c.9700882-1.3434326 2.8455673-1.6460881 4.189-.676 1.3434326.9700882 1.6460881 2.8455673.676 4.189-.3121502.447687-.2076978 1.0629701.2347081 1.3825613.4424058.3195911 1.0593492.2254397 1.3862919-.2115613 1.045895-1.4481761 1.2397492-3.3443243.5085394-4.974184-.7312097-1.6298597-2.2763952-2.7458164-4.0535-2.9275s-3.5161444.5985079-4.5620394 2.046684c-.2164079.2892571-.2599837.6727448-.1139917 1.0031815.145992.3304366.4588528.5564452.8184253.5912252.3595725.0347799.7099498-.1270764.9165664-.4234067z"/>
                <path id="Shape"
                      d="m28 30c-.5522847 0-1 .4477153-1 1v2c0 .5522847.4477153 1 1 1s1-.4477153 1-1v-2c0-.5522847-.4477153-1-1-1z"/>
                <path id="Shape"
                      d="m28 36c-.5522847 0-1 .4477153-1 1v13c0 .5522847.4477153 1 1 1s1-.4477153 1-1v-13c0-.5522847-.4477153-1-1-1z"/>
                <path id="Shape"
                      d="m5 61h1c.55228475 0 1-.4477153 1-1s-.44771525-1-1-1h-1c-.55228475 0-1 .4477153-1 1s.44771525 1 1 1z"/>
                <path id="Shape"
                      d="m50 59c-.5522847 0-1 .4477153-1 1s.4477153 1 1 1h1c.5522847 0 1-.4477153 1-1s-.4477153-1-1-1z"/>
            </g>
        </g>
    </g>
</svg>