<svg height="512" viewBox="0 0 60 60" width="512" xmlns="http://www.w3.org/2000/svg"><g id="004---Tree" fill="none"><g id="Layer_3" transform="translate(1 1)"><path id="Shape" d="m56 17c0 1.6568542-1.3431458 3-3 3 0 1.6568542-1.3431458 3-3 3-.6507407.000055-1.2833646-.2143343-1.8-.61-.3228575.4347579-.7312261.7988866-1.2 1.07-.6056006.3574709-1.2967783.5440888-2 .54-.7024067-.00209-1.3919938-.1882785-2-.54-.6828463-.3938815-1.2328977-.9822276-1.58-1.69-.5604711.7770159-1.4619528 1.235207-2.42 1.23-1.6568542 0-3-1.3431458-3-3-.0016565-.0601734.0016884-.1203804.01-.18.0738331-1.2859199.9652234-2.3789823 2.21-2.71-.1447641-.3521894-.2194908-.7292196-.22-1.11 0-1.6568542 1.3431458-3 3-3 .450525-.0003046.8951672.1023051 1.3.3.715751-1.9797372 2.5948496-3.2991043 4.7-3.3.2682781-.00196338.5361397.0214745.8.07 2.1228587.3427527 3.7872473 2.0071413 4.13 4.13.3408986-.1334217.7039241-.2012769 1.07-.2 1.6568542 0 3 1.3431458 3 3z" fill="#008a00"/><path id="Shape" d="m53 14c-.3660759-.0012769-.7291014.0665783-1.07.2-.3427527-2.1228587-2.0071413-3.7872473-4.13-4.13-.2638603-.0485255-.5317219-.07196338-.8-.07-.5138642.0005105-1.0245613.0804545-1.514.237 1.8070133.5604311 3.1410386 2.0954898 3.444 3.963.3408986-.1334217.7039241-.2012769 1.07-.2 1.6568542 0 3 1.3431458 3 3s-1.3431458 3-3 3c-.0017261 1.0676546-.5737353 2.0530357-1.5 2.584.4532865.2715152.971617.4152655 1.5.416 1.6568542 0 3-1.3431458 3-3 1.6568542 0 3-1.3431458 3-3s-1.3431458-3-3-3z" fill="#007900"/><path id="Shape" d="m20 22c.0000702.7955351-.3165773 1.5583676-.88 2.12-.1660348.1711777-.3543995.3191786-.56.44-1.3298585.8138898-3.0618148.4701096-3.98-.79-.6126945 1.2481019-1.8313327 2.0868776-3.2159343 2.2134931-1.38460152.1266155-2.73515986-.4772189-3.5640657-1.5934931-.08.06-.16.12-.25.18-.92676475.5592573-2.08293499.5759025-3.02541537.0435564s-1.52510431-1.5311233-1.52458463-2.6135564c-1.65685425 0-3-1.3431458-3-3s1.34314575-3 3-3c.36607593-.0012769.72910138.0665783 1.07.2.37021045-2.241881 2.2055443-3.9522316 4.4679281-4.1636693 2.2623838-.2114378 4.3828578 1.1292111 5.1620719 3.2636693l.21-.09c.3455685-.1424068.7162586-.2138242 1.09-.21 1.6568542 0 3 1.3431458 3 3-.0005092.3807804-.0752359.7578106-.22 1.11 1.3104127.3474363 2.2221307 1.5343124 2.22 2.89z" fill="#008a00"/><path id="Shape" d="m48 9c.0012769.36607593-.0665783.72910138-.2 1.07-.2638603-.0485255-.5317219-.07196338-.8-.07-2.1051504.0008957-3.984249 1.3202628-4.7 3.3-.4048328-.1976949-.849475-.3003046-1.3-.3-1.6568542 0-3 1.3431458-3 3 .0005092.3807804.0752359.7578106.22 1.11-1.2447766.3310177-2.1361669 1.4240801-2.21 2.71-.3226278.1219816-.6650955.1830155-1.01.18-.1949267.0008791-.3893812-.0192369-.58-.06-.6192655-.119664-1.1836811-.4351758-1.61-.9-.4311791 1.1793357-1.5543167 1.9627342-2.81 1.96-.0701487.0016592-.1403264-.0016826-.21-.01-1.0852968-.0726458-2.0442078-.7323765-2.5-1.72-.544022.8022526-1.367698 1.3727641-2.31 1.6-.0474886.5741626-.2035876 1.1340828-.46 1.65-.7597947 1.5234703-2.3175812 2.4844929-4.02 2.48-.1940851.0019622-.3880218-.0114127-.58-.04-.4717701-.0599237-.9309097-.1949647-1.36-.4.2056005-.1208214.3939652-.2688223.56-.44.7581232-.7555096 1.0549397-1.8584374.7783924-2.8923944-.2765474-1.033957-1.0843328-1.8414423-2.1183924-2.1176056.1447641-.3521894.2194908-.7292196.22-1.11 0-1.6568542-1.3431458-3-3-3-.3737414-.0038242-.7444315.0675932-1.09.21-1.0275613-1.3621734-1.1963206-3.1883405-.4357913-4.7157546.7605294-1.52741406 2.3195095-2.49330591 4.0257913-2.4942454.1770982-.00025985.3540623.00975698.53.03-.020243-.17593768-.0302599-.35290178-.03-.53.0016278-1.51161278.761261-2.92165516 2.0227015-3.75456801 1.2614405-.83291284 2.8565297-.9776633 4.2472985-.38543199.5830075-1.67828272 2.0128163-2.92113887 3.7559208-3.26482064 1.7431046-.34368177 3.5376663.26343661 4.7140792 1.59482064.8234712-1.16710378 2.2078837-1.80514437 3.6301295-1.67303446 1.4222457.13210991 2.6654536 1.01422556 3.2598705 2.31303446.9301918-.4774838 2.0418843-.43621439 2.9341133.10892324s1.4362654 1.51549201 1.4358867 2.56107676c.0003046.45052504-.1023051.89516717-.3 1.3.4048328-.19769492.849475-.30030464 1.3-.3 1.6568542 0 3 1.34314575 3 3z" fill="#60a917"/><path id="Shape" d="m45 6c-.450525-.00030464-.8951672.10230508-1.3.3.1976949-.40483283.3003046-.84947496.3-1.3.0003787-1.04558475-.5436577-2.01593913-1.4358867-2.56107676s-2.0039215-.58640704-2.9341133-.10892324c-.8891949-1.94597572-3.1566448-2.84218355-5.136-2.03.9450539.37915389 1.7092758 1.10545092 2.136 2.03.9301918-.4774838 2.0418843-.43621439 2.9341133.10892324s1.4362654 1.51549201 1.4358867 2.56107676c.0003046.45052504-.1023051.89516717-.3 1.3.4048328-.19769492.849475-.30030464 1.3-.3 1.6568542 0 3 1.34314575 3 3 .0012769.36607593-.0665783.72910138-.2 1.07-.2638603-.0485255-.5317219-.07196338-.8-.07-2.1051504.0008957-3.984249 1.3202628-4.7 3.3-.4048328-.1976949-.849475-.3003046-1.3-.3-1.6568542 0-3 1.3431458-3 3 .0005092.3807804.0752359.7578106.22 1.11-1.058041.2845772-1.8759174 1.1247035-2.132 2.19.3808159.3258854.8398403.5471269 1.332.642.1906918.0400912.3851455.0595365.58.058.3449045.0030155.6873722-.0580184 1.01-.18.0738331-1.2859199.9652234-2.3789823 2.21-2.71-.1447641-.3521894-.2194908-.7292196-.22-1.11 0-1.6568542 1.3431458-3 3-3 .450525-.0003046.8951672.1023051 1.3.3.715751-1.9797372 2.5948496-3.2991043 4.7-3.3.2682781-.00196338.5361397.0214745.8.07.1334217-.34089862.2012769-.70392407.2-1.07 0-.79564947-.3160705-1.55871121-.8786797-2.12132034-.5626091-.56260914-1.3256708-.87867966-2.1213203-.87867966z" fill="#549414"/><path id="Shape" d="m47 23.46v4.54c-.0115318 3.8612065-3.1387935 6.9884682-7 7h-4.35c-.322208-.0012334-.6249428.1541014-.8118475.4165632-.1869046.2624618-.2346922.5993499-.1281525.9034368.8548593 2.4391723 1.2910104 5.0053637 1.29 7.59v9.09c0 2.7614237 2.2385763 5 5 5h-17c2.26-4.46 4-9.58 4-14-.070666-3.6009449-.8950439-7.1471322-2.42-10.41-.162566-.3616772-.5234798-.5931328-.92-.59h-10.42c-1.5150618-.0010174-2.9001309-.8560461-3.58-2.21l-3.11-6.22c.09-.06.17-.12.25-.18 1.09659765 1.4873424 3.0761031 2.0185304 4.77 1.28l1.39 2.78c.1710655.3395038.5198431.5526457.9.55h6.26c.3785497-.0007187.7246492-.213882.8956287-.5516192s.1378898-.742865-.0856287-1.0483808c-.64-.86-1.31-1.67-2.01-2.44.1919782.0285873.3859149.0419622.58.04 1.7024188.0044929 3.2602053-.9565297 4.02-2.48.65.66 1.46 1.5 2.3 2.38.2390703.2501175.5898068.3599844.9288478.2909581.3390409-.0690263.6189029-.3072785.7411522-.6309581l1.3-3.57c.0696736.0083174.1398513.0116592.21.01 1.2556833.0027342 2.3788209-.7806643 2.81-1.96.4263189.4648242.9907345.780336 1.61.9l-3.28 9.03c-.1147206.3262732-.0543378.6885698.16.96.01.01.25.34.47.65.1866758.2621956.4881426.4185117.81.42h6.42c2.209139 0 4-1.790861 4-4v-3.54c.6080062.3517215 1.2975933.53791 2 .54.7032217.0040888 1.3943994-.1825291 2-.54z" fill="#91562d"/><g fill="#6d4122"><path id="Shape" d="m28.14 28.97c-.1147206.3262732-.0543378.6885698.16.96.01.01.25.34.47.65.1866758.2621956.4881426.4185117.81.42h3c-.3218574-.0014883-.6233242-.1578044-.81-.42-.22-.31-.46-.64-.47-.65-.2143378-.2714302-.2747206-.6337268-.16-.96l3.28-9.03c-.6192655-.119664-1.1836811-.4351758-1.61-.9-.2928386.7929988-.9085893 1.4243795-1.694 1.737z"/><path id="Shape" d="m45 24c-.337675-.0010107-.6737995-.0457153-1-.133v4.133c-.0115318 3.8612065-3.1387935 6.9884682-7 7h3c3.8612065-.0115318 6.9884682-3.1387935 7-7v-4.54c-.6056006.3574709-1.2967783.5440888-2 .54z"/><path id="Shape" d="m36 53v-9.09c.0010104-2.5846363-.4351407-5.1508277-1.29-7.59-.1065397-.3040869-.0587521-.640975.1281525-.9034368.1869047-.2624618.4896395-.4177966.8118475-.4165632h-3c-.322208-.0012334-.6249428.1541014-.8118475.4165632-.1869046.2624618-.2346922.5993499-.1281525.9034368.8548593 2.4391723 1.2910104 5.0053637 1.29 7.59v9.09c0 2.7614237 2.2385763 5 5 5h3c-2.7614237 0-5-2.2385763-5-5z"/></g></g><g id="Layer_2" fill="#000" transform="translate(-1 -1)"><path id="Shape" d="m9.856 19.82c.05255036.0087143.10573204.0130625.159.013.4900462-.0011168.9070837-.3571864.985-.841.1124263.3475906.4054498.6062127.7643151.6745834.3588653.0683708.7264551-.0643916.9588121-.3462943.2323569-.2819027.2924989-.6680776.1568728-1.0072891-.3165894-.8459167-1.1608567-1.3746655-2.0601185-1.2902135-.89926181.084452-1.63032311.761144-1.7838815 1.6512135-.08795328.542413.27822896 1.054175.82 1.146z"/><path id="Shape" d="m47.032 16.674c-.0877994.5437372.2806052 1.0561057.824 1.146.0525504.0087143.105732.0130625.159.013.4900462-.0011168.9070837-.3571864.985-.841.1124263.3475906.4054498.6062127.7643151.6745834.3588653.0683708.7264551-.0643916.9588121-.3462943.2323569-.2819027.2924989-.6680776.1568728-1.0072891-.3165894-.8459167-1.1608567-1.3746655-2.0601185-1.2902135s-1.6303231.761144-1.7838815 1.6512135z"/><path id="Shape" d="m60 59h-17c-2.209139 0-4-1.790861-4-4v-9.09c.0015161-2.6941194-.4549873-5.3688912-1.35-7.91h4.35c4.4162219-.0049599 7.9950401-3.5837781 8-8v-4.029c.134-.1.276-.193.4-.308.5038539.2231241 1.0489535.3379357 1.6.337 1.8624638-.001394 3.4784245-1.2858756 3.9-3.1 1.9873018-.4528737 3.3162559-2.3276329 3.0855426-4.3527833-.2307134-2.0251504-1.9473007-3.5529493-3.9855426-3.5472167-.114 0-.228.005-.34.014-.5986401-1.72898-1.9600797-3.0859934-3.691-3.679.01-.112.031-.221.031-.335 0-2.209139-1.790861-4-4-4 0-2.209139-1.790861-4-4-4-.3111291.0003357-.62118.03657543-.924.108-.8211072-1.16114143-2.098474-1.91695282-3.5114909-2.07773123s-2.8275307.28874063-3.8885091 1.23573123c-1.3905384-1.08224909-3.1865113-1.49854794-4.9113825-1.13843751-1.7248711.36011043-3.2042549 1.4602227-4.0456175 3.00843751-1.5496907-.35073744-3.1753496-.01491984-4.4592192.92115528-1.2838697.93607511-2.1007717 2.38113964-2.2407808 3.96384472-2.5847872.23474778-4.6525375 2.2466129-4.958 4.824-1.5450415-.9203431-3.4217973-1.0979354-5.11204802-.4837393-1.69025077.6141962-3.01518384 1.9552046-3.60895198 3.6527393-.112-.009-.226-.014-.34-.014-2.03824188-.0057326-3.75482923 1.5220663-3.98554257 3.5472167-.23071333 2.0251504 1.09824082 3.8999096 3.08554257 4.3527833.4215755 1.8141244 2.03753622 3.098606 3.9 3.1.36085145-.0054448.71922788-.0606314 1.065-.164l2.7 5.4c.8418478 1.6985291 2.5763032 2.7705405 4.472 2.764h10.431c1.4653323 3.1345318 2.259634 6.5406285 2.332 10 0 3.643-1.293 8.242-3.629 13h-23.371c-.55228475 0-1 .4477153-1 1s.44771525 1 1 1h58c.5522847 0 1-.4477153 1-1s-.4477153-1-1-1zm-7.057-42.642c.0478981.2993458.2290032.560803.4924056.7108743.2634023.1500713.5806616.1725531.8625944.0611257.2236833-.0873024.4618877-.1314143.702-.13 1.1045695 0 1.9999999.8954305 1.9999999 2s-.8954304 2-1.9999999 2c-.5522847 0-1 .4477153-1 1 0 1.1045695-.8954305 2-2 2-.4338275.0007016-.8557171-.1420378-1.2-.406-.2128269-.1623027-.4818343-.2325146-.7468335-.1949261-.2649991.0375886-.50387.1798399-.6631665.3949261-.6223038.8346253-1.6341647 1.2851715-2.6708205 1.1892227-1.0366559-.0959489-1.9486343-.7245582-2.4071795-1.6592227-.1550572-.3150973-.4640367-.5257651-.814-.555h-.083c-.3218391-.0000793-.624046.1547459-.812.416-.3703768.5157479-.9680563.8196211-1.603.815-.9937728-.0112537-1.8285223-.7505185-1.9598221-1.7356436s.4806876-1.9172145 1.4368221-2.1883564c.2780245-.0739789.5107178-.2641172.6386141-.5218245s.1386037-.558014.0293859-.8241755c-.095189-.2316359-.1444359-.4795688-.145-.73 0-1.1045695.8954305-2 2-2 .2988509-.0001637.5937534.0682592.862.2.2553709.1243758.5515858.1342815.8146954.0272442s.468285-.3209169.5643046-.5882442c.6257845-1.7035889 2.3200912-2.7723699 4.1270974-2.6034031 1.8070063.1689668 3.2737981 1.533331 3.5729026 3.3234031zm-15.834 6.613h.024c.3136814 1.2677298 1.2281921 2.3015481 2.4481763 2.7675669s2.5908385.3051815 3.6698237-.4305669c.225229.255787.4762218.4876789.749.692v3c0 1.6568542-1.3431458 3-3 3h-6.416c-.3-.431-.433-.608-.5-.7zm-17.609-11.971c.1383337-.000538.2765772.0071422.414.023.3043755.0356093.6082739-.0703096.8245774-.2873933.2163034-.2170836.3211275-.5213614.2844226-.8256067-.01586-.13608364-.0235405-.27299633-.023-.41.001639-1.17583348.5927629-2.27250487 1.5740775-2.92027708.9813145-.64777221 2.2220589-.76032918 3.3039225-.29972292.2547448.1084501.5430513.10643107.7962522-.00557621s.4486325-.3239772.5397478-.58542379c.4659984-1.34320758 1.6099605-2.3381139 3.0048205-2.61329876s2.8309626.21071354 3.7721795 1.27629876c.2023771.22903139.4983804.35293914.8035647.33637421.3051843-.01656492.5860371-.17178349.7624353-.42137421.6169397-.87447535 1.6540879-1.35269155 2.7197277-1.25403267s1.9973638.75915689 2.4432723 1.73203267c.1133523.24827236.3232547.43942763.5810185.52912566s.5409899.07014425.7839815-.05412566c.6202617-.31912608 1.3619816-.2920337 1.9573084.07149349.5953269.36352719.958243 1.01096386.9576916 1.70850651.0001637.29885094-.0682592.59375336-.2.862-.1880893.38386757-.1113792.84484313.1908889 1.14711115.302268.30226802.7632435.37897819 1.1471111.19088885.2682466-.13174085.5631491-.20016368.862-.2 1.1045695 0 2 .8954305 2 2-2.1724723.0036128-4.1742379 1.1782215-5.237 3.073-.2513627-.0490292-.5069007-.0734778-.763-.073-2.209139 0-4 1.790861-4 4 .0002064.1739148.0118985.3476262.035.52-.93784.5298484-1.6227133 1.4151372-1.9 2.456-.048 0-.086.024-.136.024-.5521713.0039252-1.0800125-.2269144-1.452-.635-.2358785-.2577463-.5891758-.373694-.9319117-.3058417s-.6252065.3096647-.7450883.6378417c-.2781412.7539004-.982022 1.2668555-1.7848796 1.3007359-.8028577.0338805-1.5474523-.4179492-1.8881204-1.1457359-.1506235-.3271688-.46555-.5480607-.8244562-.5782801-.3589062-.0302193-.7063346.1349034-.9095438.4322801-.4031772.5979793-1.0151684 1.0238054-1.716 1.194-.4234721.101635-.7324759.4656447-.764.9-.1555814 1.8084509-1.6678704 3.1978637-3.483 3.2-.018 0-.035-.006-.053-.006.3579361-.6038502.5487955-1.2920486.553-1.994-.0014693-1.4420113-.7789802-2.7716123-2.035-3.48.0231015-.1723738.0347936-.3460852.035-.52.0177294-1.1757438-.4904814-2.2979874-1.3858365-3.0602388-.8953551-.7622513-2.0843137-1.0848753-3.2421635-.8797612-.2448891-.4835338-.3723362-1.0179894-.372-1.56 0-1.9329966 1.5670034-3.5 3.5-3.5zm10.969 12.693-.921 2.52c-.661-.7-1.3-1.359-1.863-1.935.0800683-.2112937.1468649-.4273808.2-.647.4772258-.1903806.9213697-.454977 1.316-.784.3645302.3606722.795012.6478863 1.268.846zm-9.862 3.964c.251007.0921216.5083441.1659807.77.221.607.68 1.2 1.381 1.742 2.122h-6.262l-.964-1.923c.3138485-.2230774.6010606-.4814341.856-.77.6637798.451675 1.4481215.6931449 2.251.693.5537536-.0007458 1.1011983-.117593 1.607-.343zm-14.607-3.657c0-.5522847-.44771525-1-1-1-1.1045695 0-2-.8954305-2-2s.8954305-2 2-2c.23944033-.0011617.47694262.0429458.7.13.28193279.1114274.59919213.0889456.86259445-.0611257.26340231-.1500713.44450742-.4115285.49240555-.7108743.29910447-1.7900721 1.76589629-3.1544363 3.5729026-3.3234031 1.8070062-.1689668 3.5013129.8998142 4.1270974 2.6034031.0960196.2673273.301195.4812069.5643046.5882442s.5593245.0971316.8146954-.0272442c.2695416-.1319929.5658774-.2000885.866-.199 1.1045695 0 2 .8954305 2 2-.0005641.2504312-.049811.4983641-.145.73-.1092178.2661615-.0985104.5664682.0293859.8241755s.3605896.4478456.6386141.5218245c.687482.1832382 1.2251429.7190696 1.4107232 1.405923.1855803.6868535-.0090687 1.420547-.5107232 1.925077-.3755861.3805432-.8883257.5942147-1.423.593-.6365212.0064821-1.2363843-.2971799-1.608-.814-.2050509-.2851599-.5446719-.44184-.8946951-.4127567s-.6591286.2396656-.8143049.5547567c-.3188646.6508256-.8643367 1.1628724-1.534 1.44-.009 0-.019 0-.027.008h-.006c-1.256009.5126358-2.6997469.1113005-3.511-.976-.158083-.2167293-.3966142-.3608569-.662-.4-.04741128-.0063142-.09517136-.0096541-.143-.01-.21807983-.0010868-.43053667.0691469-.605.2-.34241294.2643509-.76241979.4084537-1.195.41-1.1045695 0-2-.8954305-2-2zm25 22c-.0726161-3.7421621-.9261809-7.4278861-2.506-10.821-.3255172-.7187507-1.0419734-1.1800843-1.831-1.179h-10.426c-1.1373369.0042084-2.1780298-.6389033-2.683-1.658l-1.754-3.507c.3917548.1038291.7947604.1592424 1.2.165.3570018.0000298.7129976-.0378492 1.062-.113l1.007 2.013c.3382206.6769424 1.0312747 1.103318 1.788 1.1h6.262c.7593451.0038039 1.4553458-.4227466 1.7966344-1.101084.3412885-.6783374.2689879-1.4914394-.1866344-2.098916-.257-.347-.536-.676-.807-1.013 1.0599349-.2825841 2.0117127-.8743991 2.734-1.7.453.466.939.971 1.441 1.5.3746451.3990052.8976755.6252295 1.445.625.8406453-.0000906 1.5923476-.5235691 1.884-1.312l1.081-2.957c1.016763-.1236359 1.9473587-.6326002 2.6-1.422.011.006.025.008.036.014l-2.943 8.084c-.2367622.6515035-.1211143 1.379027.306 1.925l.012.016c.058.076.251.345.429.6.376629.5289874.986637.8421945 1.636.84h6.417c2.7600532-.0033061 4.9966939-2.2399468 5-5v-2.1c.6593154.140012 1.3406846.140012 2 0v3.1c-.0033074 3.3123376-2.6876624 5.9966926-6 6h-4.35c-.6458335-.0014134-1.2523137.3102095-1.6272089.8360959s-.4717225 1.2008319-.2597911 1.8109041c.8185053 2.3340376 1.236726 4.7896051 1.237 7.263v9.09c.0003999 1.4780119.5491415 2.9033147 1.54 4h-10.952c2.0371641-4.0458224 3.1997101-8.4752183 3.412-13z"/><path id="Shape" d="m24.311 9.96c1.2734628.5423379 2.7147668.53252 3.9807232-.02711608 1.2659563-.55963608 2.2432859-1.61901352 2.6992768-2.92588392.117719-.33779462.0462846-.71273207-.1873946-.98357705-.2336792-.27084497-.5941018-.39644966-.9455-.3295-.3513983.06694966-.6403864.31628242-.7581054.65407705-.2736048.78364749-.8596563 1.41891528-1.6187472 1.7546889-.7590909.33577363-1.6233722.34204094-2.3872528.0173111-.5054744-.20437403-1.0815009.03383309-1.2949925.53552465-.2134916.50169157.0142482 1.08193621.5119925 1.30447535z"/></g></g></svg>